<?xml version="1.0" encoding="UTF-8" standalone="no"?>
<!-- Created with Inkscape (http://www.inkscape.org/) -->

<svg
   xmlns:dc="http://purl.org/dc/elements/1.1/"
   xmlns:cc="http://creativecommons.org/ns#"
   xmlns:rdf="http://www.w3.org/1999/02/22-rdf-syntax-ns#"
   xmlns:svg="http://www.w3.org/2000/svg"
   xmlns="http://www.w3.org/2000/svg"
   xmlns:sodipodi="http://sodipodi.sourceforge.net/DTD/sodipodi-0.dtd"
   xmlns:inkscape="http://www.inkscape.org/namespaces/inkscape"
   width="609.27698"
   height="312.93475"
   viewBox="0 0 161.20453 82.797323"
   version="1.1"
   id="svg10830"
   inkscape:version="0.92.3 (2405546, 2018-03-11)"
   sodipodi:docname="cloud-purple.svg"
   inkscape:export-filename="/home/spl1nes/Website/img/cloud.png"
   inkscape:export-xdpi="96"
   inkscape:export-ydpi="96">
  <defs
     id="defs10824" />
  <sodipodi:namedview
     id="base"
     pagecolor="#ffffff"
     bordercolor="#666666"
     borderopacity="1.0"
     inkscape:pageopacity="0.0"
     inkscape:pageshadow="2"
     inkscape:zoom="0.98994949"
     inkscape:cx="-4.096486"
     inkscape:cy="206.37103"
     inkscape:document-units="mm"
     inkscape:current-layer="layer1"
     showgrid="false"
     units="px"
     inkscape:pagecheckerboard="true"
     inkscape:window-width="2560"
     inkscape:window-height="1051"
     inkscape:window-x="1280"
     inkscape:window-y="0"
     inkscape:window-maximized="1" />
  <metadata
     id="metadata10827">
    <rdf:RDF>
      <cc:Work
         rdf:about="">
        <dc:format>image/svg+xml</dc:format>
        <dc:type
           rdf:resource="http://purl.org/dc/dcmitype/StillImage" />
        <dc:title></dc:title>
      </cc:Work>
    </rdf:RDF>
  </metadata>
  <g
     inkscape:label="Layer 1"
     inkscape:groupmode="layer"
     id="layer1"
     transform="translate(-187.10044,-34.163536)">
    <path
       style="opacity:1;fill:#7137c8;fill-opacity:1;stroke:none;stroke-width:0.20141971"
       d="m 234.83336,34.959085 a 26.055234,19.946718 48.81537 0 0 -19.31266,5.560697 16.859269,12.9067 48.81537 0 0 -4.05929,-1.669964 16.859269,12.9067 48.81537 0 0 -14.75109,10.79892 16.859269,12.9067 48.81537 0 0 0.0752,1.379542 c -4.26296,0.01189 -7.38221,3.056797 -7.38221,7.694754 0,5.553449 4.47088,11.222296 10.02433,12.710337 l 57.30086,15.353726 c 1.18285,0.31694 2.31587,0.41598 3.36774,0.32492 a 17.417487,13.334047 48.81537 0 0 11.66857,-11.671186 17.417487,13.334047 48.81537 0 0 -15.23966,-19.323115 17.417487,13.334047 48.81537 0 0 -0.1726,-0.0403 26.055234,19.946718 48.81537 0 0 -21.51918,-21.118307 z"
       id="path10986"
       inkscape:connector-curvature="0" />
    <path
       inkscape:connector-curvature="0"
       id="path10988"
       d="m 232.5305,37.939274 a 26.055234,19.946718 48.81537 0 0 -19.31266,5.560697 16.859269,12.9067 48.81537 0 0 -4.0593,-1.669963 16.859269,12.9067 48.81537 0 0 -14.75109,10.79892 16.859269,12.9067 48.81537 0 0 0.0752,1.379541 c -4.26295,0.01189 -7.38221,3.056797 -7.38221,7.694754 0,5.553449 4.47088,11.222297 10.02433,12.710338 l 57.30087,15.353716 c 1.18284,0.31695 2.31586,0.41598 3.36774,0.32492 a 17.417487,13.334047 48.81537 0 0 11.66856,-11.671179 17.417487,13.334047 48.81537 0 0 -15.23965,-19.323113 17.417487,13.334047 48.81537 0 0 -0.17261,-0.0403 26.055234,19.946718 48.81537 0 0 -21.51917,-21.118307 z"
       style="opacity:1;fill:#b380ff;fill-opacity:1;stroke:none;stroke-width:0.20141971" />
    <path
       inkscape:connector-curvature="0"
       id="path10984"
       d="m 296.78099,39.998128 a 36.350315,27.828171 48.81537 0 0 -26.94358,7.757869 23.520792,18.006463 48.81537 0 0 -5.66322,-2.329808 23.520792,18.006463 48.81537 0 0 -20.57962,15.065846 23.520792,18.006463 48.81537 0 0 0.1049,1.924633 c -5.94736,0.01659 -10.29911,4.264615 -10.29911,10.735146 0,7.747757 6.23744,15.656509 13.98519,17.732513 l 79.94189,21.420373 c 1.65022,0.44218 3.23092,0.58034 4.69842,0.4533 a 24.299577,18.602666 48.81537 0 0 16.27911,-16.282764 24.299577,18.602666 48.81537 0 0 -21.26123,-26.958167 24.299577,18.602666 48.81537 0 0 -0.24081,-0.05622 36.350315,27.828171 48.81537 0 0 -30.02194,-29.462684 z"
       style="opacity:1;fill:#660080;fill-opacity:1;stroke:none;stroke-width:0.28100574" />
    <path
       style="opacity:1;fill:#aa00d4;fill-opacity:1;stroke:none;stroke-width:0.28100574"
       d="m 293.5682,44.155866 a 36.350315,27.828171 48.81537 0 0 -26.94358,7.757869 23.520792,18.006463 48.81537 0 0 -5.66322,-2.329808 23.520792,18.006463 48.81537 0 0 -20.57962,15.065846 23.520792,18.006463 48.81537 0 0 0.1049,1.924633 c -5.94736,0.01659 -10.29911,4.264615 -10.29911,10.735146 0,7.747757 6.23744,15.656509 13.98519,17.732513 l 79.94189,21.420365 c 1.65022,0.44218 3.23092,0.58034 4.69842,0.4533 a 24.299577,18.602666 48.81537 0 0 16.27911,-16.28276 24.299577,18.602666 48.81537 0 0 -21.26123,-26.958163 24.299577,18.602666 48.81537 0 0 -0.24081,-0.05622 36.350315,27.828171 48.81537 0 0 -30.02194,-29.462684 z"
       id="path10837"
       inkscape:connector-curvature="0" />
  </g>
</svg>
