<?xml version="1.0" encoding="UTF-8" standalone="no"?>
<!-- Created with Inkscape (http://www.inkscape.org/) -->

<svg
   xmlns:dc="http://purl.org/dc/elements/1.1/"
   xmlns:cc="http://creativecommons.org/ns#"
   xmlns:rdf="http://www.w3.org/1999/02/22-rdf-syntax-ns#"
   xmlns:svg="http://www.w3.org/2000/svg"
   xmlns="http://www.w3.org/2000/svg"
   xmlns:sodipodi="http://sodipodi.sourceforge.net/DTD/sodipodi-0.dtd"
   xmlns:inkscape="http://www.inkscape.org/namespaces/inkscape"
   width="212.12137mm"
   height="190.31038mm"
   viewBox="0 0 212.12137 190.31038"
   version="1.1"
   id="svg995"
   inkscape:version="0.92.3 (2405546, 2018-03-11)"
   sodipodi:docname="figure-group.svg">
  <defs
     id="defs989" />
  <sodipodi:namedview
     id="base"
     pagecolor="#ffffff"
     bordercolor="#666666"
     borderopacity="1.0"
     inkscape:pageopacity="0.0"
     inkscape:pageshadow="2"
     inkscape:zoom="0.35"
     inkscape:cx="-9.1407179"
     inkscape:cy="325.35597"
     inkscape:document-units="mm"
     inkscape:current-layer="layer1"
     showgrid="false"
     inkscape:pagecheckerboard="true"
     inkscape:window-width="2560"
     inkscape:window-height="1051"
     inkscape:window-x="1280"
     inkscape:window-y="0"
     inkscape:window-maximized="1" />
  <metadata
     id="metadata992">
    <rdf:RDF>
      <cc:Work
         rdf:about="">
        <dc:format>image/svg+xml</dc:format>
        <dc:type
           rdf:resource="http://purl.org/dc/dcmitype/StillImage" />
        <dc:title></dc:title>
      </cc:Work>
    </rdf:RDF>
  </metadata>
  <g
     inkscape:label="Layer 1"
     inkscape:groupmode="layer"
     id="layer1"
     transform="translate(4.763066,-44.606715)">
    <path
       inkscape:connector-curvature="0"
       id="path893-0"
       d="M 21.818243,59.522892 A 12.458647,16.407215 45.237651 0 0 7.235144,77.447134 12.458647,16.407215 45.237651 0 0 21.818243,87.556321 12.458647,16.407215 45.237651 0 0 36.401865,69.631937 12.458647,16.407215 45.237651 0 0 21.818243,59.522892 Z M 1.383834,96.735868 c -3.40556,0.912519 -6.1469,4.388942 -6.1469,7.794492 0,0.0547 0.003,0.10772 0.004,0.16168 -0.001,0.0548 -0.004,0.10963 -0.004,0.1644 v 49.17788 c 0,3.40555 2.74134,5.41237 6.1469,4.49985 3.40556,-0.91251 6.14744,-4.38855 6.14744,-7.7941 v -43.35705 l 1.24642,-0.33398 v 55.95731 48.87144 c 0,3.40555 2.74138,5.41288 6.14691,4.50037 3.40556,-0.91252 6.14743,-4.38909 6.14743,-7.79464 v -49.17735 -5.30614 c 0,-0.41356 0.33317,-0.836 0.746741,-0.94681 0.41357,-0.11082 0.746199,0.13321 0.746199,0.54678 v 13.20282 41.37524 c 0,3.40555 2.74188,5.41275 6.14744,4.50024 3.405532,-0.91252 6.146901,-4.38894 6.146901,-7.79449 V 156.0178 100.06049 l 1.246431,-0.333984 v 43.357054 c 0,3.40554 2.741869,5.41222 6.147429,4.49971 3.405558,-0.91252 6.146909,-4.38842 6.146909,-7.79397 V 90.611412 c 0,-0.05477 -0.003,-0.108146 -0.004,-0.16219 0.0011,-0.05471 0.004,-0.109196 0.004,-0.163885 0,-3.40555 -2.741351,-5.412888 -6.146909,-4.500372 z"
       style="fill:#500080;fill-opacity:1;stroke:none;stroke-width:6.24422073;stroke-linejoin:round;stroke-miterlimit:4;stroke-dasharray:none;stroke-opacity:1" />
    <path
       style="fill:#950080;fill-opacity:1;stroke:none;stroke-width:6.24422073;stroke-linejoin:round;stroke-miterlimit:4;stroke-dasharray:none;stroke-opacity:1"
       d="m 28.308684,61.412773 a 12.458647,16.407215 45.237651 0 0 -14.5831,17.924243 12.458647,16.407215 45.237651 0 0 14.5831,10.109187 A 12.458647,16.407215 45.237651 0 0 42.892306,71.521817 12.458647,16.407215 45.237651 0 0 28.308684,61.412773 Z M 7.874274,98.625758 c -3.40556,0.912508 -6.1469,4.388932 -6.1469,7.794482 0,0.0547 0.003,0.10771 0.004,0.16168 -0.00101,0.0548 -0.004,0.10963 -0.004,0.1644 v 49.17787 c 0,3.40555 2.74134,5.41237 6.1469,4.49986 3.40556,-0.91252 6.14744,-4.38857 6.14744,-7.79412 V 109.2729 l 1.24642,-0.33398 v 55.9573 48.87143 c 0,3.40555 2.74138,5.41288 6.14691,4.50037 3.405561,-0.9125 6.14743,-4.38907 6.14743,-7.79463 v -49.17735 -5.30614 c 0,-0.41357 0.333171,-0.83599 0.746742,-0.9468 0.413567,-0.11083 0.746199,0.1332 0.746199,0.54678 v 13.2028 41.37525 c 0,3.40555 2.741879,5.41276 6.14744,4.50023 3.405529,-0.9125 6.146901,-4.38894 6.146901,-7.79449 v -48.96599 -55.95731 l 1.246428,-0.33398 v 43.35704 c 0,3.40554 2.741872,5.41222 6.14743,4.49971 3.40556,-0.91252 6.146911,-4.38842 6.146911,-7.79397 V 92.501294 c 0,-0.05477 -0.003,-0.108146 -0.004,-0.162193 0.0011,-0.05471 0.004,-0.109196 0.004,-0.163882 0,-3.405553 -2.741351,-5.412889 -6.146911,-4.500375 z"
       id="path3606-3-2-6"
       inkscape:connector-curvature="0" />
    <path
       inkscape:connector-curvature="0"
       id="path893"
       d="M 58.619634,45.141244 A 12.458647,16.407215 45.237651 0 0 44.036536,63.065485 12.458647,16.407215 45.237651 0 0 58.619634,73.174672 12.458647,16.407215 45.237651 0 0 73.203255,55.250288 12.458647,16.407215 45.237651 0 0 58.619634,45.141244 Z M 38.185225,82.354221 c -3.40556,0.912516 -6.1469,4.388938 -6.1469,7.794488 0,0.05469 0.003,0.107712 0.004,0.161673 -0.0011,0.0548 -0.004,0.10963 -0.004,0.164404 v 49.177884 c 0,3.40555 2.74134,5.41237 6.1469,4.49985 3.405561,-0.91251 6.14744,-4.38856 6.14744,-7.79411 V 93.001361 l 1.246421,-0.333978 v 55.957317 48.87143 c 0,3.40555 2.741379,5.41288 6.146908,4.50037 3.405561,-0.91251 6.14743,-4.38908 6.14743,-7.79463 v -49.17735 -5.30614 c 0,-0.41357 0.333171,-0.836 0.746741,-0.94681 0.413571,-0.11082 0.7462,0.13321 0.7462,0.54678 v 13.20281 41.37525 c 0,3.40555 2.741879,5.41275 6.14744,4.50023 3.405529,-0.91251 6.1469,-4.38894 6.1469,-7.79449 v -48.966 -55.957315 l 1.246429,-0.333981 v 43.357056 c 0,3.40554 2.741871,5.41222 6.147432,4.49971 3.405558,-0.91252 6.146908,-4.38842 6.146908,-7.79397 V 76.229763 c 0,-0.05477 -0.003,-0.108146 -0.004,-0.162193 0.0011,-0.05471 0.004,-0.109196 0.004,-0.163883 0,-3.40555 -2.74135,-5.412889 -6.146908,-4.500372 z"
       style="fill:#500080;fill-opacity:1;stroke:none;stroke-width:6.24422073;stroke-linejoin:round;stroke-miterlimit:4;stroke-dasharray:none;stroke-opacity:1" />
    <path
       style="fill:#950080;fill-opacity:1;stroke:none;stroke-width:6.24422073;stroke-linejoin:round;stroke-miterlimit:4;stroke-dasharray:none;stroke-opacity:1"
       d="m 65.110074,47.031125 a 12.458647,16.407215 45.237651 0 0 -14.5831,17.924241 12.458647,16.407215 45.237651 0 0 14.5831,10.109187 A 12.458647,16.407215 45.237651 0 0 79.693696,57.140169 12.458647,16.407215 45.237651 0 0 65.110074,47.031125 Z M 44.675663,84.244103 c -3.405558,0.912516 -6.146898,4.388937 -6.146898,7.794487 0,0.05469 0.003,0.107712 0.004,0.161674 -0.0011,0.0548 -0.004,0.10963 -0.004,0.164404 v 49.177872 c 0,3.40555 2.74134,5.41237 6.146898,4.49985 3.405561,-0.91251 6.147441,-4.38856 6.147441,-7.79411 V 94.891243 l 1.24642,-0.333978 V 150.51457 199.386 c 0,3.40555 2.74138,5.41288 6.146911,4.50037 3.405561,-0.91251 6.14743,-4.38908 6.14743,-7.79463 v -49.17735 -5.30614 c 0,-0.41357 0.333171,-0.836 0.746739,-0.94681 0.41357,-0.11082 0.746201,0.13321 0.746201,0.54678 v 13.20281 41.37525 c 0,3.40555 2.74188,5.41275 6.147441,4.50023 3.405528,-0.91251 6.1469,-4.38894 6.1469,-7.79449 v -48.966 -55.957303 l 1.246428,-0.333981 v 43.357044 c 0,3.40554 2.741872,5.41222 6.14743,4.49971 3.405561,-0.91252 6.146911,-4.38842 6.146911,-7.79397 V 78.119644 c 0,-0.05477 -0.003,-0.108145 -0.004,-0.162192 0.0011,-0.05471 0.004,-0.109196 0.004,-0.163885 0,-3.40555 -2.74135,-5.412889 -6.146911,-4.500372 z"
       id="path3606-3-2"
       inkscape:connector-curvature="0" />
    <path
       inkscape:connector-curvature="0"
       id="path857-3-8"
       d="M 180.77698,47.370193 A 16.407215,12.458647 44.762349 0 0 166.19337,57.479241 16.407215,12.458647 44.762349 0 0 180.77698,75.40362 16.407215,12.458647 44.762349 0 0 195.36059,65.294572 16.407215,12.458647 44.762349 0 0 180.77698,47.370193 Z m -20.43441,26.262211 c -3.40555,-0.912514 -6.14743,1.094681 -6.14743,4.500231 0,0.0546 0.003,0.109263 0.004,0.163886 -0.001,0.05404 -0.004,0.107421 -0.004,0.162192 v 49.177877 c 0,3.40555 2.74188,6.8816 6.14743,7.79411 3.40555,0.91251 6.14691,-1.0943 6.14691,-4.49985 V 87.573805 l 1.24644,0.333981 v 55.957304 48.87144 c 0,3.40555 2.74188,6.88211 6.14743,7.79464 3.40553,0.9125 6.14691,-1.09483 6.14691,-4.50038 v -49.17736 -5.30614 c 0,-0.41357 0.33315,-0.65745 0.74672,-0.54664 0.41357,0.11082 0.74621,0.5331 0.74621,0.94667 v 13.20281 41.37525 c 0,3.40555 2.74188,6.88212 6.14743,7.79463 3.40555,0.91252 6.14691,-1.09482 6.14691,-4.50037 v -48.966 -55.957306 l 1.24643,0.333981 v 43.357045 c 0,3.40555 2.74188,6.88159 6.14743,7.79411 3.40555,0.91251 6.14691,-1.09431 6.14691,-4.49985 V 92.70374 c 0,-0.05477 -0.003,-0.109609 -0.004,-0.164407 0.001,-0.05387 0.004,-0.107069 0.004,-0.161671 0,-3.40555 -2.74136,-6.881977 -6.14691,-7.79449 z"
       style="fill:#500080;fill-opacity:1;stroke:none;stroke-width:6.24422073;stroke-linejoin:round;stroke-miterlimit:4;stroke-dasharray:none;stroke-opacity:1" />
    <path
       style="fill:#950080;fill-opacity:1;stroke:none;stroke-width:6.24422073;stroke-linejoin:round;stroke-miterlimit:4;stroke-dasharray:none;stroke-opacity:1"
       d="m 175.10733,48.882098 a 16.407215,12.458647 44.762349 0 0 -14.58361,10.109048 16.407215,12.458647 44.762349 0 0 14.58361,17.92438 16.407215,12.458647 44.762349 0 0 14.5836,-10.109049 16.407215,12.458647 44.762349 0 0 -14.5836,-17.924379 z m -20.43441,26.262211 c -3.40555,-0.912513 -6.14743,1.09468 -6.14743,4.50023 0,0.0546 0.003,0.109262 0.004,0.163888 -0.001,0.05404 -0.004,0.107418 -0.004,0.162195 v 49.177858 c 0,3.40555 2.74188,6.88161 6.14743,7.79412 3.40555,0.91251 6.14691,-1.0943 6.14691,-4.49985 V 89.085711 l 1.24644,0.333981 v 55.957298 48.87144 c 0,3.40555 2.74188,6.88211 6.14743,7.79463 3.40554,0.91251 6.14691,-1.09482 6.14691,-4.50037 v -49.17736 -5.30614 c 0,-0.41357 0.33315,-0.65745 0.74672,-0.54664 0.41357,0.11082 0.74621,0.5331 0.74621,0.94667 v 13.20281 41.37525 c 0,3.40555 2.74188,6.88212 6.14743,7.79463 3.40555,0.91252 6.14691,-1.09482 6.14691,-4.50037 v -48.966 -55.957303 l 1.24643,0.333981 v 43.357042 c 0,3.40555 2.74187,6.88159 6.14742,7.79411 3.40555,0.91251 6.14692,-1.09431 6.14692,-4.49985 V 94.215643 c 0,-0.05477 -0.003,-0.109606 -0.004,-0.164404 0.001,-0.05387 0.004,-0.107069 0.004,-0.161671 0,-3.40555 -2.74137,-6.881974 -6.14692,-7.79449 z"
       id="path3606-6-7"
       inkscape:connector-curvature="0" />
    <path
       inkscape:connector-curvature="0"
       id="path857-3"
       d="M 141.22109,49.508349 A 16.407215,12.458647 44.762349 0 0 126.63748,59.617397 16.407215,12.458647 44.762349 0 0 141.22109,77.541776 16.407215,12.458647 44.762349 0 0 155.8047,67.432728 16.407215,12.458647 44.762349 0 0 141.22109,49.508349 Z M 120.78668,75.77056 c -3.40555,-0.912514 -6.14743,1.094682 -6.14743,4.500231 0,0.0546 0.003,0.109263 0.004,0.163886 -10e-4,0.05404 -0.004,0.107418 -0.004,0.162192 v 49.177881 c 0,3.40555 2.74188,6.8816 6.14743,7.79411 3.40555,0.91251 6.14691,-1.0943 6.14691,-4.49985 V 89.711961 l 1.24644,0.333981 v 55.957308 48.87144 c 0,3.40555 2.74188,6.88211 6.14743,7.79463 3.40554,0.91251 6.14691,-1.09482 6.14691,-4.50037 v -49.17736 -5.30614 c 0,-0.41357 0.33315,-0.65745 0.74672,-0.54664 0.41357,0.11082 0.74621,0.5331 0.74621,0.94667 v 13.20281 41.37525 c 0,3.40555 2.74188,6.88212 6.14743,7.79463 3.40555,0.91252 6.14691,-1.09482 6.14691,-4.50037 v -48.966 -55.95731 l 1.24643,0.333981 v 43.357049 c 0,3.40555 2.74188,6.88159 6.14743,7.79411 3.40555,0.91251 6.14691,-1.09431 6.14691,-4.49985 V 94.841896 c 0,-0.05477 -0.003,-0.109609 -0.004,-0.164407 0.001,-0.05387 0.004,-0.107072 0.004,-0.161671 0,-3.40555 -2.74136,-6.881977 -6.14691,-7.79449 z"
       style="fill:#500080;fill-opacity:1;stroke:none;stroke-width:6.24422073;stroke-linejoin:round;stroke-miterlimit:4;stroke-dasharray:none;stroke-opacity:1" />
    <path
       style="fill:#950080;fill-opacity:1;stroke:none;stroke-width:6.24422073;stroke-linejoin:round;stroke-miterlimit:4;stroke-dasharray:none;stroke-opacity:1"
       d="m 135.55144,51.020254 a 16.407215,12.458647 44.762349 0 0 -14.58361,10.109048 16.407215,12.458647 44.762349 0 0 14.58361,17.92438 16.407215,12.458647 44.762349 0 0 14.58361,-10.109049 16.407215,12.458647 44.762349 0 0 -14.58361,-17.924379 z m -20.43441,26.262212 c -3.40555,-0.912514 -6.14743,1.094679 -6.14743,4.500229 0,0.0546 0.003,0.109262 0.004,0.163888 -0.001,0.05404 -0.004,0.107418 -0.004,0.162192 v 49.177865 c 0,3.40555 2.74188,6.88161 6.14743,7.79412 3.40555,0.91251 6.14691,-1.0943 6.14691,-4.49985 V 91.223867 l 1.24644,0.333981 v 55.957302 48.87144 c 0,3.40555 2.74188,6.88211 6.14743,7.79463 3.40554,0.91251 6.14691,-1.09482 6.14691,-4.50037 v -49.17736 -5.30614 c 0,-0.41356 0.33315,-0.65745 0.74672,-0.54663 0.41357,0.11082 0.74621,0.53309 0.74621,0.94666 v 13.20281 41.37525 c 0,3.40555 2.74188,6.88212 6.14743,7.79463 3.40555,0.91252 6.14691,-1.09482 6.14691,-4.50037 v -48.966 -55.957307 l 1.24643,0.333981 v 43.357046 c 0,3.40555 2.74188,6.88159 6.14743,7.79411 3.40555,0.91251 6.14691,-1.09431 6.14691,-4.49985 V 96.353799 c 0,-0.05477 -0.003,-0.109606 -0.004,-0.164404 0.001,-0.05387 0.004,-0.107069 0.004,-0.161671 0,-3.40555 -2.74136,-6.881977 -6.14691,-7.79449 z"
       id="path3606-6"
       inkscape:connector-curvature="0" />
    <path
       inkscape:connector-curvature="0"
       id="path893-2"
       d="m 95.050094,48.832111 a 12.458647,16.407215 45.237651 0 0 -14.5831,17.924241 12.458647,16.407215 45.237651 0 0 14.5831,10.109186 A 12.458647,16.407215 45.237651 0 0 109.63371,58.941155 12.458647,16.407215 45.237651 0 0 95.050094,48.832111 Z M 74.615686,86.045087 c -3.405561,0.912519 -6.146901,4.38894 -6.146901,7.79449 0,0.05469 0.003,0.107712 0.004,0.161674 -0.0011,0.0548 -0.004,0.10963 -0.004,0.164404 v 49.177885 c 0,3.40555 2.74134,5.41237 6.146901,4.49985 3.405558,-0.91251 6.14744,-4.38856 6.14744,-7.79411 V 96.69223 l 1.246418,-0.333981 V 152.31557 201.187 c 0,3.40555 2.741382,5.41288 6.146911,4.50037 3.40556,-0.91251 6.14743,-4.38908 6.14743,-7.79463 v -49.17735 -5.30614 c 0,-0.41357 0.333171,-0.836 0.746741,-0.94681 0.413568,-0.11082 0.746198,0.13321 0.746198,0.54678 v 13.20281 41.37525 c 0,3.40555 2.74188,5.41275 6.147436,4.50023 3.40553,-0.91251 6.1469,-4.38894 6.1469,-7.79449 v -48.966 -55.957319 l 1.24643,-0.333978 v 43.357057 c 0,3.40554 2.74187,5.41222 6.14743,4.49971 3.40556,-0.91252 6.14691,-4.38842 6.14691,-7.79397 V 79.920629 c 0,-0.05477 -0.003,-0.108146 -0.004,-0.16219 10e-4,-0.05471 0.004,-0.109196 0.004,-0.163885 0,-3.40555 -2.74135,-5.412889 -6.14691,-4.500372 z"
       style="fill:#500080;fill-opacity:1;stroke:none;stroke-width:6.24422073;stroke-linejoin:round;stroke-miterlimit:4;stroke-dasharray:none;stroke-opacity:1" />
    <path
       style="fill:#950080;fill-opacity:1;stroke:none;stroke-width:6.24422073;stroke-linejoin:round;stroke-miterlimit:4;stroke-dasharray:none;stroke-opacity:1"
       d="M 101.54053,50.721992 A 12.458647,16.407215 45.237651 0 0 86.957435,68.646233 12.458647,16.407215 45.237651 0 0 101.54053,78.75542 12.458647,16.407215 45.237651 0 0 116.12415,60.831036 12.458647,16.407215 45.237651 0 0 101.54053,50.721992 Z M 81.106124,87.934969 c -3.405558,0.912516 -6.146898,4.388937 -6.146898,7.794487 0,0.05469 0.003,0.107712 0.004,0.161674 -0.0011,0.0548 -0.004,0.10963 -0.004,0.164404 v 49.177876 c 0,3.40555 2.74134,5.41237 6.146898,4.49985 3.405561,-0.91251 6.14744,-4.38856 6.14744,-7.79411 V 98.582109 l 1.246421,-0.333978 v 55.957309 48.87143 c 0,3.40555 2.741379,5.41288 6.146911,4.50037 3.405558,-0.91251 6.147424,-4.38908 6.147424,-7.79463 v -49.17735 -5.30614 c 0,-0.41357 0.33317,-0.836 0.74674,-0.94681 0.41357,-0.11082 0.7462,0.13321 0.7462,0.54678 v 13.20281 41.37525 c 0,3.40555 2.74188,5.41275 6.14744,4.50023 3.40553,-0.91251 6.1469,-4.38894 6.1469,-7.79449 v -48.966 -55.957307 l 1.24643,-0.333981 v 43.357048 c 0,3.40554 2.74187,5.41222 6.14743,4.49971 3.40556,-0.91252 6.14691,-4.38842 6.14691,-7.79397 V 81.81051 c 0,-0.05477 -0.003,-0.108145 -0.004,-0.162192 0.001,-0.05471 0.004,-0.109196 0.004,-0.163883 0,-3.405552 -2.74135,-5.412888 -6.14691,-4.500374 z"
       id="path3606-3-2-61"
       inkscape:connector-curvature="0" />
    <path
       inkscape:connector-curvature="0"
       id="path857"
       d="M 116.09775,76.2353 A 16.407215,12.458647 44.762349 0 0 101.51414,86.34435 16.407215,12.458647 44.762349 0 0 116.09775,104.26873 16.407215,12.458647 44.762349 0 0 130.68136,94.159681 16.407215,12.458647 44.762349 0 0 116.09775,76.2353 Z m -20.434406,26.26221 c -3.405548,-0.91251 -6.147428,1.09468 -6.147428,4.50023 0,0.0546 0.003,0.10926 0.004,0.16389 -0.0011,0.054 -0.004,0.10742 -0.004,0.16219 v 49.17788 c 0,3.40555 2.74188,6.8816 6.147428,7.79411 3.40555,0.91251 6.146906,-1.0943 6.146906,-4.49985 v -43.35705 l 1.24644,0.33398 v 55.95731 48.87144 c 0,3.40555 2.74188,6.88211 6.14743,7.79463 3.40554,0.91251 6.14691,-1.09482 6.14691,-4.50037 v -49.17736 -5.30614 c 0,-0.41357 0.33315,-0.65745 0.74672,-0.54664 0.41357,0.11082 0.74621,0.5331 0.74621,0.94667 v 13.20281 41.37525 c 0,3.40555 2.74188,6.88212 6.14743,7.79463 3.40555,0.91252 6.14692,-1.09482 6.14692,-4.50037 v -48.966 -55.95731 l 1.24642,0.33398 v 43.35705 c 0,3.40555 2.74188,6.88159 6.14743,7.79411 3.40555,0.91251 6.14691,-1.09431 6.14691,-4.49985 v -49.17788 c 0,-0.0548 -0.003,-0.10961 -0.004,-0.16441 0.001,-0.0539 0.004,-0.10707 0.004,-0.16167 0,-3.40555 -2.74136,-6.88198 -6.14691,-7.79449 z"
       style="fill:#d45500;fill-opacity:1;stroke:none;stroke-width:6.24422073;stroke-linejoin:round;stroke-miterlimit:4;stroke-dasharray:none;stroke-opacity:1" />
    <path
       style="fill:#ff7f2a;fill-opacity:1;stroke:none;stroke-width:6.24422073;stroke-linejoin:round;stroke-miterlimit:4;stroke-dasharray:none;stroke-opacity:1"
       d="M 110.4281,77.747206 A 16.407215,12.458647 44.762349 0 0 95.844494,87.856255 16.407215,12.458647 44.762349 0 0 110.4281,105.78063 16.407215,12.458647 44.762349 0 0 125.01171,95.671587 16.407215,12.458647 44.762349 0 0 110.4281,77.747206 Z M 89.993695,104.00942 c -3.40555,-0.91252 -6.14743,1.09468 -6.14743,4.50023 0,0.0546 0.003,0.10926 0.004,0.16388 -0.0011,0.054 -0.004,0.10742 -0.004,0.1622 v 49.17787 c 0,3.40555 2.74188,6.8816 6.14743,7.79411 3.40555,0.91251 6.146909,-1.0943 6.146909,-4.49985 v -43.35704 l 1.24644,0.33398 v 55.9573 48.87144 c 0,3.40555 2.741876,6.88211 6.147426,7.79463 3.40554,0.91251 6.14691,-1.09482 6.14691,-4.50037 v -49.17736 -5.30614 c 0,-0.41357 0.33315,-0.65745 0.74672,-0.54664 0.41357,0.11082 0.74621,0.5331 0.74621,0.94667 v 13.20281 41.37525 c 0,3.40555 2.74188,6.88212 6.14743,7.79463 3.40555,0.91252 6.14691,-1.09482 6.14691,-4.50037 v -48.966 -55.95731 l 1.24643,0.33398 v 43.35705 c 0,3.40555 2.74188,6.88159 6.14743,7.79411 3.40555,0.91251 6.14691,-1.09431 6.14691,-4.49985 v -49.17788 c 0,-0.0548 -0.003,-0.10961 -0.004,-0.1644 0.001,-0.0539 0.004,-0.10708 0.004,-0.16168 0,-3.40555 -2.74136,-6.88197 -6.14691,-7.79449 z"
       id="path3606"
       inkscape:connector-curvature="0" />
  </g>
</svg>
