<?xml version="1.0" encoding="UTF-8" standalone="no"?>
<!-- Created with Inkscape (http://www.inkscape.org/) -->

<svg
   xmlns:dc="http://purl.org/dc/elements/1.1/"
   xmlns:cc="http://creativecommons.org/ns#"
   xmlns:rdf="http://www.w3.org/1999/02/22-rdf-syntax-ns#"
   xmlns:svg="http://www.w3.org/2000/svg"
   xmlns="http://www.w3.org/2000/svg"
   xmlns:sodipodi="http://sodipodi.sourceforge.net/DTD/sodipodi-0.dtd"
   xmlns:inkscape="http://www.inkscape.org/namespaces/inkscape"
   width="2048"
   height="1400"
   viewBox="0 0 541.86665 370.41668"
   version="1.1"
   id="svg3061"
   inkscape:version="0.92.3 (2405546, 2018-03-11)"
   sodipodi:docname="figure.svg">
  <defs
     id="defs3055" />
  <sodipodi:namedview
     id="base"
     pagecolor="#ffffff"
     bordercolor="#666666"
     borderopacity="1.0"
     inkscape:pageopacity="0.0"
     inkscape:pageshadow="2"
     inkscape:zoom="0.49497475"
     inkscape:cx="1235.7915"
     inkscape:cy="605.28001"
     inkscape:document-units="mm"
     inkscape:current-layer="layer1"
     showgrid="false"
     units="px"
     inkscape:pagecheckerboard="true"
     inkscape:snap-bbox="true"
     inkscape:bbox-paths="true"
     inkscape:bbox-nodes="true"
     inkscape:snap-bbox-edge-midpoints="true"
     inkscape:snap-bbox-midpoints="true"
     showguides="true"
     inkscape:guide-bbox="true"
     inkscape:window-width="2560"
     inkscape:window-height="1051"
     inkscape:window-x="1280"
     inkscape:window-y="0"
     inkscape:window-maximized="1"
     inkscape:snap-global="false" />
  <metadata
     id="metadata3058">
    <rdf:RDF>
      <cc:Work
         rdf:about="">
        <dc:format>image/svg+xml</dc:format>
        <dc:type
           rdf:resource="http://purl.org/dc/dcmitype/StillImage" />
        <dc:title />
      </cc:Work>
    </rdf:RDF>
  </metadata>
  <g
     inkscape:label="Layer 1"
     inkscape:groupmode="layer"
     id="layer1"
     transform="translate(0,73.416683)">
    <ellipse
       style="fill:#800080;fill-opacity:1;stroke:none;stroke-width:6.24422073;stroke-linejoin:round;stroke-miterlimit:4;stroke-dasharray:none;stroke-opacity:1"
       id="path3606-3"
       cx="37.041668"
       cy="22.554773"
       rx="14.583554"
       ry="14.01659" />
    <rect
       style="fill:#800080;fill-opacity:1;stroke:none;stroke-width:7.9375;stroke-linejoin:round;stroke-miterlimit:4;stroke-dasharray:none;stroke-opacity:1"
       id="rect3608-6"
       width="12.294398"
       height="61.471992"
       x="10.459958"
       y="40.601883"
       rx="6.1471992"
       ry="6.1471992" />
    <rect
       ry="6.1471992"
       rx="6.1471992"
       y="40.60191"
       x="51.328976"
       height="61.471992"
       width="12.294398"
       id="rect3610-7"
       style="fill:#800080;fill-opacity:1;stroke:none;stroke-width:7.9375;stroke-linejoin:round;stroke-miterlimit:4;stroke-dasharray:none;stroke-opacity:1" />
    <rect
       style="fill:#800080;fill-opacity:1;stroke:none;stroke-width:7.9375;stroke-linejoin:round;stroke-miterlimit:4;stroke-dasharray:none;stroke-opacity:1"
       id="rect3612-5"
       width="12.294398"
       height="61.471992"
       x="37.788174"
       y="102.16837"
       rx="6.1471992"
       ry="6.1471992" />
    <rect
       ry="6.1471992"
       rx="6.1471992"
       y="102.07387"
       x="24.000744"
       height="61.471992"
       width="12.294398"
       id="rect3614-3"
       style="fill:#800080;fill-opacity:1;stroke:none;stroke-width:7.9375;stroke-linejoin:round;stroke-miterlimit:4;stroke-dasharray:none;stroke-opacity:1" />
    <rect
       style="fill:#800080;fill-opacity:1;stroke:none;stroke-width:7.38161802;stroke-linejoin:round;stroke-miterlimit:4;stroke-dasharray:none;stroke-opacity:1"
       id="rect3632-5"
       width="12.294398"
       height="53.163418"
       x="-52.569935"
       y="10.459958"
       rx="0"
       ry="6.1471992"
       transform="rotate(-90)" />
    <path
       inkscape:connector-curvature="0"
       style="fill:#800080;fill-opacity:1;stroke:none;stroke-width:7.97066975;stroke-linejoin:round;stroke-miterlimit:4;stroke-dasharray:none;stroke-opacity:1"
       d="m 31.591479,43.074244 c -4.205253,0 -7.590753,3.3855 -7.590753,7.590753 V 108.5271 c 0,4.20525 3.3855,7.59075 7.590753,7.59075 h 4.703588 v -13.20281 c 0,-0.41357 0.333155,-0.74673 0.746721,-0.74673 0.41357,0 0.74621,0.33316 0.74621,0.74673 v 13.20281 h 4.704104 c 4.205253,0 7.590234,-3.3855 7.590234,-7.59075 V 50.664997 c 0,-4.205253 -3.384981,-7.590753 -7.590234,-7.590753 z"
       id="rect3636-6" />
    <path
       inkscape:connector-curvature="0"
       id="path893-0"
       d="m 249.59149,14.659806 a 12.458647,16.407215 45.237651 0 0 -14.5831,17.924242 12.458647,16.407215 45.237651 0 0 14.5831,10.109186 12.458647,16.407215 45.237651 0 0 14.58362,-17.924383 12.458647,16.407215 45.237651 0 0 -14.58362,-10.109045 z M 229.15708,51.87278 c -3.40556,0.91252 -6.1469,4.38894 -6.1469,7.79449 0,0.0547 0.003,0.10772 0.004,0.16168 -0.001,0.0548 -0.004,0.10963 -0.004,0.1644 v 49.17788 c 0,3.40555 2.74134,5.41237 6.1469,4.49985 3.40556,-0.91251 6.14744,-4.38855 6.14744,-7.7941 V 62.51993 l 1.24642,-0.33398 v 55.95731 48.87144 c 0,3.40555 2.74138,5.41288 6.14691,4.50037 3.40556,-0.91252 6.14743,-4.38909 6.14743,-7.79464 v -49.17735 -5.30614 c 0,-0.41356 0.33317,-0.836 0.74674,-0.94681 0.41357,-0.11082 0.7462,0.13321 0.7462,0.54678 v 13.20282 41.37524 c 0,3.40555 2.74188,5.41275 6.14744,4.50024 3.40553,-0.91252 6.1469,-4.38894 6.1469,-7.79449 V 111.15471 55.1974 l 1.24643,-0.33398 v 43.357054 c 0,3.405536 2.74187,5.412216 6.14743,4.499706 3.40556,-0.91252 6.14691,-4.388416 6.14691,-7.793966 V 45.748325 c 0,-0.05477 -0.003,-0.108146 -0.004,-0.16219 10e-4,-0.05471 0.004,-0.109196 0.004,-0.163886 0,-3.405549 -2.74135,-5.412888 -6.14691,-4.500372 z"
       style="fill:#500080;fill-opacity:1;stroke:none;stroke-width:6.24422073;stroke-linejoin:round;stroke-miterlimit:4;stroke-dasharray:none;stroke-opacity:1" />
    <path
       style="fill:#950080;fill-opacity:1;stroke:none;stroke-width:6.24422073;stroke-linejoin:round;stroke-miterlimit:4;stroke-dasharray:none;stroke-opacity:1"
       d="m 256.08193,16.549687 a 12.458647,16.407215 45.237651 0 0 -14.5831,17.924242 12.458647,16.407215 45.237651 0 0 14.5831,10.109187 12.458647,16.407215 45.237651 0 0 14.58362,-17.924384 12.458647,16.407215 45.237651 0 0 -14.58362,-10.109045 z M 235.64752,53.76267 c -3.40556,0.91251 -6.1469,4.38893 -6.1469,7.79448 0,0.0547 0.003,0.10771 0.004,0.16168 -10e-4,0.0548 -0.004,0.10963 -0.004,0.1644 v 49.17787 c 0,3.40555 2.74134,5.41237 6.1469,4.49986 3.40556,-0.91252 6.14744,-4.38857 6.14744,-7.79412 V 64.40981 l 1.24642,-0.33398 v 55.9573 48.87143 c 0,3.40555 2.74138,5.41288 6.14691,4.50037 3.40556,-0.9125 6.14743,-4.38907 6.14743,-7.79463 v -49.17735 -5.30614 c 0,-0.41357 0.33317,-0.83599 0.74674,-0.9468 0.41357,-0.11083 0.7462,0.1332 0.7462,0.54678 v 13.2028 41.37525 c 0,3.40555 2.74188,5.41276 6.14744,4.50023 3.40553,-0.9125 6.1469,-4.38894 6.1469,-7.79449 V 113.04459 57.08728 l 1.24643,-0.33398 v 43.35704 c 0,3.40554 2.74187,5.41222 6.14743,4.49971 3.40556,-0.91252 6.14691,-4.38842 6.14691,-7.793966 V 47.638206 c 0,-0.05477 -0.003,-0.108145 -0.004,-0.162192 0.001,-0.05471 0.004,-0.109196 0.004,-0.163883 0,-3.405552 -2.74135,-5.412888 -6.14691,-4.500374 z"
       id="path3606-3-2-6"
       inkscape:connector-curvature="0" />
    <path
       inkscape:connector-curvature="0"
       id="path893"
       d="M 286.39288,0.27815744 A 12.458647,16.407215 45.237651 0 0 271.80978,18.202399 12.458647,16.407215 45.237651 0 0 286.39288,28.311586 12.458647,16.407215 45.237651 0 0 300.9765,10.387202 12.458647,16.407215 45.237651 0 0 286.39288,0.27815744 Z M 265.95847,37.491135 c -3.40556,0.912517 -6.1469,4.388938 -6.1469,7.794488 0,0.05469 0.003,0.107712 0.004,0.161674 -10e-4,0.0548 -0.004,0.10963 -0.004,0.164404 v 49.177883 c 0,3.40555 2.74134,5.412366 6.1469,4.49985 3.40556,-0.91251 6.14744,-4.38856 6.14744,-7.79411 V 48.138276 l 1.24642,-0.333979 v 55.957313 48.87143 c 0,3.40555 2.74138,5.41288 6.14691,4.50037 3.40556,-0.91251 6.14743,-4.38908 6.14743,-7.79463 v -49.17735 -5.306136 c 0,-0.41357 0.33317,-0.836 0.74674,-0.94681 0.41357,-0.11082 0.7462,0.13321 0.7462,0.54678 v 13.202806 41.37525 c 0,3.40555 2.74188,5.41275 6.14744,4.50023 3.40553,-0.91251 6.1469,-4.38894 6.1469,-7.79449 V 96.773064 40.815748 l 1.24643,-0.333979 v 43.357055 c 0,3.40554 2.74187,5.41222 6.14743,4.49971 3.40556,-0.91252 6.14691,-4.38842 6.14691,-7.79397 V 31.366677 c 0,-0.05477 -0.003,-0.108146 -0.004,-0.162192 0.001,-0.05471 0.004,-0.109196 0.004,-0.163885 0,-3.40555 -2.74135,-5.412888 -6.14691,-4.500372 z"
       style="fill:#500080;fill-opacity:1;stroke:none;stroke-width:6.24422073;stroke-linejoin:round;stroke-miterlimit:4;stroke-dasharray:none;stroke-opacity:1" />
    <path
       style="fill:#950080;fill-opacity:1;stroke:none;stroke-width:6.24422073;stroke-linejoin:round;stroke-miterlimit:4;stroke-dasharray:none;stroke-opacity:1"
       d="M 292.88332,2.1680384 A 12.458647,16.407215 45.237651 0 0 278.30022,20.09228 12.458647,16.407215 45.237651 0 0 292.88332,30.201467 12.458647,16.407215 45.237651 0 0 307.46694,12.277083 12.458647,16.407215 45.237651 0 0 292.88332,2.1680384 Z M 272.44891,39.381016 c -3.40556,0.912517 -6.1469,4.388938 -6.1469,7.794488 0,0.05469 0.003,0.107712 0.004,0.161674 -0.001,0.0548 -0.004,0.10963 -0.004,0.164404 v 49.177872 c 0,3.405546 2.74134,5.412366 6.1469,4.499846 3.40556,-0.91251 6.14744,-4.388556 6.14744,-7.794106 V 50.028157 l 1.24642,-0.333979 v 55.957302 48.87143 c 0,3.40555 2.74138,5.41288 6.14691,4.50037 3.40556,-0.91251 6.14743,-4.38908 6.14743,-7.79463 V 102.0513 96.745164 c 0,-0.41357 0.33317,-0.836 0.74674,-0.94681 0.41357,-0.11082 0.7462,0.13321 0.7462,0.54678 v 13.202806 41.37525 c 0,3.40555 2.74188,5.41275 6.14744,4.50023 3.40553,-0.91251 6.1469,-4.38894 6.1469,-7.79449 V 98.662934 42.705629 l 1.24643,-0.333979 v 43.357044 c 0,3.40554 2.74187,5.41222 6.14743,4.49971 3.40556,-0.91252 6.14691,-4.38842 6.14691,-7.79397 V 33.256558 c 0,-0.05477 -0.003,-0.108146 -0.004,-0.162192 10e-4,-0.05471 0.004,-0.109196 0.004,-0.163885 0,-3.40555 -2.74135,-5.412888 -6.14691,-4.500372 z"
       id="path3606-3-2"
       inkscape:connector-curvature="0" />
    <path
       inkscape:connector-curvature="0"
       id="path857-3-8"
       d="M 408.55023,2.5071064 A 16.407215,12.458647 44.762349 0 0 393.96662,12.616155 16.407215,12.458647 44.762349 0 0 408.55023,30.540534 16.407215,12.458647 44.762349 0 0 423.13384,20.431486 16.407215,12.458647 44.762349 0 0 408.55023,2.5071064 Z M 388.11582,28.769318 c -3.40555,-0.912514 -6.14743,1.094682 -6.14743,4.500232 0,0.0546 0.003,0.109262 0.004,0.163885 -0.001,0.05404 -0.004,0.107419 -0.004,0.162193 v 49.177876 c 0,3.40555 2.74188,6.8816 6.14743,7.79411 3.40555,0.91251 6.14691,-1.0943 6.14691,-4.49985 V 42.710719 l 1.24644,0.333981 v 55.957304 48.871436 c 0,3.40555 2.74188,6.88211 6.14743,7.79464 3.40553,0.9125 6.14691,-1.09483 6.14691,-4.50038 v -49.17736 -5.306136 c 0,-0.41357 0.33315,-0.65745 0.74672,-0.54664 0.41357,0.11082 0.74621,0.5331 0.74621,0.94667 v 13.202806 41.37525 c 0,3.40555 2.74188,6.88212 6.14743,7.79463 3.40555,0.91252 6.14691,-1.09482 6.14691,-4.50037 v -48.966 -55.957302 l 1.24643,0.333981 v 43.357045 c 0,3.40555 2.74188,6.881586 6.14743,7.794106 3.40555,0.91251 6.14691,-1.09431 6.14691,-4.499846 v -49.17788 c 0,-0.05477 -0.003,-0.109609 -0.004,-0.164407 0.001,-0.05387 0.004,-0.107071 0.004,-0.161671 0,-3.40555 -2.74136,-6.881976 -6.14691,-7.79449 z"
       style="fill:#500080;fill-opacity:1;stroke:none;stroke-width:6.24422073;stroke-linejoin:round;stroke-miterlimit:4;stroke-dasharray:none;stroke-opacity:1" />
    <path
       style="fill:#950080;fill-opacity:1;stroke:none;stroke-width:6.24422073;stroke-linejoin:round;stroke-miterlimit:4;stroke-dasharray:none;stroke-opacity:1"
       d="M 402.88058,4.0190114 A 16.407215,12.458647 44.762349 0 0 388.29697,14.12806 16.407215,12.458647 44.762349 0 0 402.88058,32.05244 16.407215,12.458647 44.762349 0 0 417.46418,21.943391 16.407215,12.458647 44.762349 0 0 402.88058,4.0190114 Z M 382.44617,30.281224 c -3.40555,-0.912514 -6.14743,1.094679 -6.14743,4.500229 0,0.0546 0.003,0.109262 0.004,0.163888 -10e-4,0.05404 -0.004,0.107418 -0.004,0.162193 v 49.17786 c 0,3.40555 2.74188,6.88161 6.14743,7.79412 3.40555,0.91251 6.14691,-1.0943 6.14691,-4.49985 V 44.222623 l 1.24644,0.333983 v 55.957294 48.87144 c 0,3.40555 2.74188,6.88211 6.14743,7.79463 3.40554,0.91251 6.14691,-1.09482 6.14691,-4.50037 v -49.17736 -5.306136 c 0,-0.41357 0.33315,-0.65745 0.74672,-0.54664 0.41357,0.11082 0.74621,0.5331 0.74621,0.94667 v 13.202806 41.37525 c 0,3.40555 2.74188,6.88212 6.14743,7.79463 3.40555,0.91252 6.14691,-1.09482 6.14691,-4.50037 v -48.966 -55.957299 l 1.24643,0.333981 v 43.357042 c 0,3.40555 2.74187,6.881586 6.14742,7.794106 3.40555,0.91251 6.14692,-1.09431 6.14692,-4.499846 V 49.352557 c 0,-0.05477 -0.003,-0.109606 -0.004,-0.164404 0.001,-0.05387 0.004,-0.107071 0.004,-0.161671 0,-3.40555 -2.74137,-6.881976 -6.14692,-7.79449 z"
       id="path3606-6-7"
       inkscape:connector-curvature="0" />
    <path
       inkscape:connector-curvature="0"
       id="path857-3"
       d="M 368.99434,4.6452624 A 16.407215,12.458647 44.762349 0 0 354.41073,14.754311 16.407215,12.458647 44.762349 0 0 368.99434,32.67869 16.407215,12.458647 44.762349 0 0 383.57795,22.569642 16.407215,12.458647 44.762349 0 0 368.99434,4.6452624 Z M 348.55993,30.907474 c -3.40555,-0.912514 -6.14743,1.094682 -6.14743,4.500232 0,0.0546 0.003,0.109262 0.004,0.163885 -10e-4,0.05404 -0.004,0.107419 -0.004,0.162193 v 49.17788 c 0,3.40555 2.74188,6.8816 6.14743,7.79411 3.40555,0.91251 6.14691,-1.0943 6.14691,-4.49985 V 44.848875 l 1.24644,0.333981 v 55.957304 48.87144 c 0,3.40555 2.74188,6.88211 6.14743,7.79463 3.40554,0.91251 6.14691,-1.09482 6.14691,-4.50037 V 104.1285 98.822364 c 0,-0.41357 0.33315,-0.65745 0.74672,-0.54664 0.41357,0.11082 0.74621,0.5331 0.74621,0.94667 v 13.202806 41.37525 c 0,3.40555 2.74188,6.88212 6.14743,7.79463 3.40555,0.91252 6.14691,-1.09482 6.14691,-4.50037 v -48.966 -55.957306 l 1.24643,0.333981 v 43.357049 c 0,3.40555 2.74188,6.881586 6.14743,7.794106 3.40555,0.91251 6.14691,-1.09431 6.14691,-4.499846 V 49.97881 c 0,-0.05477 -0.003,-0.109609 -0.004,-0.164407 10e-4,-0.05387 0.004,-0.107071 0.004,-0.161671 0,-3.40555 -2.74136,-6.881976 -6.14691,-7.79449 z"
       style="fill:#500080;fill-opacity:1;stroke:none;stroke-width:6.24422073;stroke-linejoin:round;stroke-miterlimit:4;stroke-dasharray:none;stroke-opacity:1" />
    <path
       style="fill:#950080;fill-opacity:1;stroke:none;stroke-width:6.24422073;stroke-linejoin:round;stroke-miterlimit:4;stroke-dasharray:none;stroke-opacity:1"
       d="M 363.32469,6.1571674 A 16.407215,12.458647 44.762349 0 0 348.74108,16.266216 16.407215,12.458647 44.762349 0 0 363.32469,34.190596 16.407215,12.458647 44.762349 0 0 377.9083,24.081547 16.407215,12.458647 44.762349 0 0 363.32469,6.1571674 Z M 342.89028,32.41938 c -3.40555,-0.912514 -6.14743,1.094679 -6.14743,4.500229 0,0.0546 0.003,0.109262 0.004,0.163888 -10e-4,0.05404 -0.004,0.107418 -0.004,0.162193 v 49.177864 c 0,3.40555 2.74188,6.88161 6.14743,7.79412 3.40555,0.91251 6.14691,-1.0943 6.14691,-4.49985 V 46.360779 l 1.24644,0.333983 v 55.957298 48.87144 c 0,3.40555 2.74188,6.88211 6.14743,7.79463 3.40554,0.91251 6.14691,-1.09482 6.14691,-4.50037 v -49.17736 -5.30614 c 0,-0.413566 0.33315,-0.657446 0.74672,-0.546636 0.41357,0.11082 0.74621,0.533096 0.74621,0.946666 v 13.20281 41.37525 c 0,3.40555 2.74188,6.88212 6.14743,7.79463 3.40555,0.91252 6.14691,-1.09482 6.14691,-4.50037 v -48.966 -55.957303 l 1.24643,0.333981 v 43.357046 c 0,3.405546 2.74188,6.881586 6.14743,7.794106 3.40555,0.91251 6.14691,-1.09431 6.14691,-4.49985 V 51.490713 c 0,-0.05477 -0.003,-0.109606 -0.004,-0.164404 10e-4,-0.05387 0.004,-0.107071 0.004,-0.161671 0,-3.40555 -2.74136,-6.881976 -6.14691,-7.79449 z"
       id="path3606-6"
       inkscape:connector-curvature="0" />
    <path
       inkscape:connector-curvature="0"
       id="path893-2"
       d="M 322.82334,3.9690244 A 12.458647,16.407215 45.237651 0 0 308.24024,21.893266 12.458647,16.407215 45.237651 0 0 322.82334,32.002452 12.458647,16.407215 45.237651 0 0 337.40696,14.078069 12.458647,16.407215 45.237651 0 0 322.82334,3.9690244 Z M 302.38893,41.182001 c -3.40556,0.912519 -6.1469,4.38894 -6.1469,7.79449 0,0.05469 0.003,0.107712 0.004,0.161674 -0.001,0.0548 -0.004,0.10963 -0.004,0.164404 v 49.177885 c 0,3.405546 2.74134,5.412366 6.1469,4.499846 3.40556,-0.91251 6.14744,-4.388556 6.14744,-7.794106 v -43.35705 l 1.24642,-0.333981 v 55.957317 48.87143 c 0,3.40555 2.74138,5.41288 6.14691,4.50037 3.40556,-0.91251 6.14743,-4.38908 6.14743,-7.79463 V 103.8523 98.546164 c 0,-0.41357 0.33317,-0.836 0.74674,-0.94681 0.41357,-0.11082 0.7462,0.13321 0.7462,0.54678 v 13.202806 41.37525 c 0,3.40555 2.74188,5.41275 6.14744,4.50023 3.40553,-0.91251 6.1469,-4.38894 6.1469,-7.79449 v -48.966 -55.957315 l 1.24643,-0.333978 v 43.357057 c 0,3.40554 2.74187,5.41222 6.14743,4.49971 3.40556,-0.91252 6.14691,-4.38842 6.14691,-7.79397 V 35.057543 c 0,-0.05477 -0.003,-0.108146 -0.004,-0.16219 10e-4,-0.05471 0.004,-0.109196 0.004,-0.163886 0,-3.405549 -2.74135,-5.412888 -6.14691,-4.500372 z"
       style="fill:#500080;fill-opacity:1;stroke:none;stroke-width:6.24422073;stroke-linejoin:round;stroke-miterlimit:4;stroke-dasharray:none;stroke-opacity:1" />
    <path
       style="fill:#950080;fill-opacity:1;stroke:none;stroke-width:6.24422073;stroke-linejoin:round;stroke-miterlimit:4;stroke-dasharray:none;stroke-opacity:1"
       d="M 329.31378,5.8589054 A 12.458647,16.407215 45.237651 0 0 314.73068,23.783147 12.458647,16.407215 45.237651 0 0 329.31378,33.892334 12.458647,16.407215 45.237651 0 0 343.8974,15.96795 12.458647,16.407215 45.237651 0 0 329.31378,5.8589054 Z M 308.87937,43.071883 c -3.40556,0.912516 -6.1469,4.388937 -6.1469,7.794487 0,0.05469 0.003,0.107712 0.004,0.161674 -10e-4,0.0548 -0.004,0.10963 -0.004,0.164404 v 49.177872 c 0,3.40555 2.74134,5.41237 6.1469,4.49985 3.40556,-0.91251 6.14744,-4.38856 6.14744,-7.794106 V 53.719023 l 1.24642,-0.333978 v 55.957305 48.87143 c 0,3.40555 2.74138,5.41288 6.14691,4.50037 3.40556,-0.91251 6.14743,-4.38908 6.14743,-7.79463 v -49.17735 -5.30614 c 0,-0.41357 0.33317,-0.835996 0.74674,-0.946806 0.41357,-0.11082 0.7462,0.13321 0.7462,0.546776 v 13.20281 41.37525 c 0,3.40555 2.74188,5.41275 6.14744,4.50023 3.40553,-0.91251 6.1469,-4.38894 6.1469,-7.79449 v -48.966 -55.957303 l 1.24643,-0.333981 v 43.357048 c 0,3.40554 2.74187,5.41222 6.14743,4.49971 3.40556,-0.91252 6.14691,-4.38842 6.14691,-7.79397 v -49.17788 c 0,-0.05477 -0.003,-0.108145 -0.004,-0.162192 0.001,-0.05471 0.004,-0.109196 0.004,-0.163883 0,-3.405552 -2.74135,-5.412888 -6.14691,-4.500374 z"
       id="path3606-3-2-61"
       inkscape:connector-curvature="0" />
    <path
       inkscape:connector-curvature="0"
       id="path857"
       d="M 343.871,31.372215 A 16.407215,12.458647 44.762349 0 0 329.28739,41.481264 16.407215,12.458647 44.762349 0 0 343.871,59.405646 16.407215,12.458647 44.762349 0 0 358.45461,49.296595 16.407215,12.458647 44.762349 0 0 343.871,31.372215 Z m -20.43441,26.262211 c -3.40555,-0.91251 -6.14743,1.09468 -6.14743,4.50023 0,0.0546 0.003,0.10926 0.004,0.16389 -10e-4,0.054 -0.004,0.10742 -0.004,0.16219 v 49.177874 c 0,3.40555 2.74188,6.8816 6.14743,7.79411 3.40555,0.91251 6.14691,-1.0943 6.14691,-4.49985 V 71.575826 l 1.24644,0.33398 v 55.957304 48.87144 c 0,3.40555 2.74188,6.88211 6.14743,7.79463 3.40554,0.91251 6.14691,-1.09482 6.14691,-4.50037 v -49.17736 -5.30614 c 0,-0.41357 0.33315,-0.65745 0.74672,-0.54664 0.41357,0.11082 0.74621,0.5331 0.74621,0.94667 v 13.20281 41.37525 c 0,3.40555 2.74188,6.88212 6.14743,7.79463 3.40555,0.91252 6.14692,-1.09482 6.14692,-4.50037 v -48.966 -55.957306 l 1.24642,0.33398 v 43.357046 c 0,3.40555 2.74188,6.88159 6.14743,7.79411 3.40555,0.91251 6.14691,-1.09431 6.14691,-4.49985 V 76.705764 c 0,-0.0548 -0.003,-0.10961 -0.004,-0.16441 10e-4,-0.0539 0.004,-0.10707 0.004,-0.16167 0,-3.405548 -2.74136,-6.881978 -6.14691,-7.794488 z"
       style="fill:#d45500;fill-opacity:1;stroke:none;stroke-width:6.24422073;stroke-linejoin:round;stroke-miterlimit:4;stroke-dasharray:none;stroke-opacity:1" />
    <path
       style="fill:#ff7f2a;fill-opacity:1;stroke:none;stroke-width:6.24422073;stroke-linejoin:round;stroke-miterlimit:4;stroke-dasharray:none;stroke-opacity:1"
       d="M 338.20135,32.88412 A 16.407215,12.458647 44.762349 0 0 323.61774,42.993169 16.407215,12.458647 44.762349 0 0 338.20135,60.917546 16.407215,12.458647 44.762349 0 0 352.78496,50.8085 16.407215,12.458647 44.762349 0 0 338.20135,32.88412 Z m -20.43441,26.262216 c -3.40555,-0.91252 -6.14743,1.09468 -6.14743,4.50023 0,0.0546 0.003,0.10926 0.004,0.16388 -0.001,0.054 -0.004,0.10742 -0.004,0.1622 v 49.177864 c 0,3.40555 2.74188,6.8816 6.14743,7.79411 3.40555,0.91251 6.14691,-1.0943 6.14691,-4.49985 V 73.087736 l 1.24644,0.33398 v 55.957294 48.87144 c 0,3.40555 2.74188,6.88211 6.14743,7.79463 3.40554,0.91251 6.14691,-1.09482 6.14691,-4.50037 v -49.17736 -5.30614 c 0,-0.41357 0.33315,-0.65745 0.74672,-0.54664 0.41357,0.11082 0.74621,0.5331 0.74621,0.94667 v 13.20281 41.37525 c 0,3.40555 2.74188,6.88212 6.14743,7.79463 3.40555,0.91252 6.14691,-1.09482 6.14691,-4.50037 v -48.966 -55.957306 l 1.24643,0.33398 v 43.357046 c 0,3.40555 2.74188,6.88159 6.14743,7.79411 3.40555,0.91251 6.14691,-1.09431 6.14691,-4.49985 V 78.217664 c 0,-0.0548 -0.003,-0.10961 -0.004,-0.1644 0.001,-0.0539 0.004,-0.10708 0.004,-0.16168 0,-3.405548 -2.74136,-6.881968 -6.14691,-7.794488 z"
       id="path3606"
       inkscape:connector-curvature="0" />
  </g>
</svg>
