<?xml version="1.0" encoding="UTF-8" standalone="no"?>
<!-- Created with Inkscape (http://www.inkscape.org/) -->

<svg
   xmlns:dc="http://purl.org/dc/elements/1.1/"
   xmlns:cc="http://creativecommons.org/ns#"
   xmlns:rdf="http://www.w3.org/1999/02/22-rdf-syntax-ns#"
   xmlns:svg="http://www.w3.org/2000/svg"
   xmlns="http://www.w3.org/2000/svg"
   xmlns:xlink="http://www.w3.org/1999/xlink"
   xmlns:sodipodi="http://sodipodi.sourceforge.net/DTD/sodipodi-0.dtd"
   xmlns:inkscape="http://www.inkscape.org/namespaces/inkscape"
   width="1598.364"
   height="730"
   viewBox="0 0 422.90047 193.14584"
   version="1.1"
   id="svg929"
   inkscape:version="0.92.3 (2405546, 2018-03-11)"
   sodipodi:docname="flow-tree-combined.svg">
  <defs
     id="defs923">
    <linearGradient
       inkscape:collect="always"
       id="linearGradient888">
      <stop
         style="stop-color:#950080;stop-opacity:1"
         offset="0"
         id="stop884" />
      <stop
         style="stop-color:#630080;stop-opacity:1"
         offset="1"
         id="stop886" />
    </linearGradient>
    <linearGradient
       inkscape:collect="always"
       xlink:href="#linearGradient888"
       id="linearGradient890"
       x1="-1.0228632e-08"
       y1="365"
       x2="1598.3632"
       y2="365"
       gradientUnits="userSpaceOnUse" />
  </defs>
  <sodipodi:namedview
     id="base"
     pagecolor="#ffffff"
     bordercolor="#666666"
     borderopacity="1.0"
     inkscape:pageopacity="0.0"
     inkscape:pageshadow="2"
     inkscape:zoom="0.7"
     inkscape:cx="462.96599"
     inkscape:cy="462.27153"
     inkscape:document-units="mm"
     inkscape:current-layer="layer1"
     showgrid="false"
     inkscape:pagecheckerboard="true"
     units="px"
     inkscape:window-width="2560"
     inkscape:window-height="1051"
     inkscape:window-x="1280"
     inkscape:window-y="0"
     inkscape:window-maximized="1" />
  <metadata
     id="metadata926">
    <rdf:RDF>
      <cc:Work
         rdf:about="">
        <dc:format>image/svg+xml</dc:format>
        <dc:type
           rdf:resource="http://purl.org/dc/dcmitype/StillImage" />
        <dc:title />
      </cc:Work>
    </rdf:RDF>
  </metadata>
  <g
     inkscape:label="Layer 1"
     inkscape:groupmode="layer"
     id="layer1"
     transform="translate(-70.303574,5.7589445)">
    <path
       style="fill:url(#linearGradient890);stroke-width:0.96755907;stroke:none;stroke-miterlimit:4;stroke-dasharray:none;fill-opacity:1"
       d="M 194.28516 0 A 61.428569 61.428569 0 0 0 132.85742 61.427734 A 61.428569 61.428569 0 0 0 187.22656 122.41016 L 187.22656 343.00391 C 187.22656 355.42124 191.24443 366.86008 198.04492 376.10938 L 181.71484 376.10938 C 181.24567 376.10938 180.78273 376.1331 180.31641 376.14453 L 102.92773 376.14453 C 83.142015 376.14453 67.214844 360.2154 67.214844 340.42969 L 67.214844 299.66992 A 61.428569 61.428569 0 0 0 122.85742 238.57227 A 61.428569 61.428569 0 0 0 61.427734 177.14258 A 61.428569 61.428569 0 0 0 0 238.57227 A 61.428569 61.428569 0 0 0 43.785156 297.38672 L 43.785156 343.00195 C 43.785156 372.07756 65.778994 395.81297 94.082031 398.52539 L 94.082031 398.79297 L 136.81641 398.79297 C 130.01632 408.0421 126 419.48151 126 431.89844 L 126 441.69336 A 61.428569 61.428569 0 0 0 78.572266 501.42773 A 61.428569 61.428569 0 0 0 140 562.85742 A 61.428569 61.428569 0 0 0 201.42773 501.42773 A 61.428569 61.428569 0 0 0 149.42969 440.80469 L 149.42969 434.46875 C 149.42969 415.1984 164.54082 399.59319 183.60742 398.79297 L 242.94141 398.79297 L 317.63477 398.79297 C 310.83427 408.04226 306.81641 419.4811 306.81641 431.89844 L 306.81641 608.33203 A 61.428569 61.428569 0 0 0 257.14258 668.57227 A 61.428569 61.428569 0 0 0 318.57227 730 A 61.428569 61.428569 0 0 0 380 668.57227 A 61.428569 61.428569 0 0 0 330.24609 608.28711 L 330.24609 434.46875 C 330.24609 415.1984 345.35722 399.59319 364.42383 398.79297 L 506.90039 398.79297 C 508.62822 398.95324 510.37548 399.04492 512.14648 399.04492 L 578.52734 399.04492 C 571.8377 408.25012 567.88867 419.59264 567.88867 431.89844 L 567.88867 483.33984 A 61.428569 61.428569 0 0 0 521.42773 542.85742 A 61.428569 61.428569 0 0 0 582.85742 604.28516 A 61.428569 61.428569 0 0 0 644.28516 542.85742 A 61.428569 61.428569 0 0 0 591.31836 482.08789 L 591.31836 434.46875 C 591.31836 416.21264 604.88239 401.25085 622.52148 399.04492 L 905.44922 399.04492 C 898.74059 408.25775 894.7793 419.61646 894.7793 431.94141 L 894.7793 597.35938 A 61.428569 61.428569 0 0 0 847.14258 657.14258 A 61.428569 61.428569 0 0 0 908.57227 718.57227 A 61.428569 61.428569 0 0 0 970 657.14258 A 61.428569 61.428569 0 0 0 918.20898 596.55078 L 918.20898 434.51367 C 918.20898 416.13515 931.95364 401.09287 949.76562 399.04492 L 960.61133 399.04492 L 1178.8027 399.04492 L 1178.8027 398.79883 L 1194.9648 398.79883 L 1194.9648 398.79297 L 1407.2637 398.79297 L 1409.1191 398.79297 L 1409.1191 398.75977 C 1409.1635 398.75832 1409.2076 398.75545 1409.252 398.75391 L 1516.3457 398.75391 L 1516.3457 423.14062 C 1516.346 428.15969 1521.9962 431.29588 1526.5176 428.78711 L 1560.7461 409.78516 L 1594.9746 390.78516 C 1599.4928 388.27468 1599.4928 382.00462 1594.9746 379.49414 L 1560.7461 360.49219 L 1526.5176 341.49414 C 1525.5337 340.94763 1524.423 340.64725 1523.2871 340.62109 C 1519.4795 340.53496 1516.345 343.47879 1516.3457 347.14062 L 1516.3457 376.10938 L 1346.0371 376.10938 L 1308.7188 376.10938 C 1308.7188 376.10938 1308.7207 376.10742 1308.7207 376.10742 C 1308.6947 376.10846 1308.6685 376.10835 1308.6426 376.10938 L 1099.1367 376.10938 C 1081.49 373.91034 1067.918 358.94509 1067.918 340.68359 L 1067.918 164.42578 A 61.428569 61.428569 0 0 0 1117.1426 104.28516 A 61.428569 61.428569 0 0 0 1055.7148 42.857422 A 61.428569 61.428569 0 0 0 994.28516 104.28516 A 61.428569 61.428569 0 0 0 1044.4883 164.63867 L 1044.4883 343.25586 C 1044.4883 355.56123 1048.4377 366.90435 1055.127 376.10938 L 717.70898 376.10938 C 700.06228 373.91034 686.49023 358.94509 686.49023 340.68359 L 686.49023 280.13867 A 61.428569 61.428569 0 0 0 735.71484 220 A 61.428569 61.428569 0 0 0 674.28516 158.57227 A 61.428569 61.428569 0 0 0 612.85742 220 A 61.428569 61.428569 0 0 0 663.06055 280.35156 L 663.06055 343.25586 C 663.06055 355.56123 667.00999 366.90435 673.69922 376.10938 L 626.79492 376.10938 C 609.14821 373.91034 595.57617 358.94509 595.57617 340.68359 L 595.57617 133.66797 A 61.428569 61.428569 0 0 0 641.42773 74.285156 A 61.428569 61.428569 0 0 0 580 12.857422 A 61.428569 61.428569 0 0 0 518.57227 74.285156 A 61.428569 61.428569 0 0 0 572.14648 135.14844 L 572.14648 343.25586 C 572.14648 355.56123 576.09593 366.90435 582.78516 376.10938 L 511.08008 376.10938 C 493.43338 373.91034 479.86133 358.94509 479.86133 340.68359 L 479.86133 292.88086 A 61.428569 61.428569 0 0 0 528.57227 232.85742 A 61.428569 61.428569 0 0 0 467.14258 171.42773 A 61.428569 61.428569 0 0 0 405.71484 232.85742 A 61.428569 61.428569 0 0 0 456.43164 293.28711 L 456.43164 343.25586 C 456.43164 355.56123 460.38108 366.90435 467.07031 376.10938 L 244.91016 376.10938 C 225.80703 375.34825 210.65625 359.72808 210.65625 340.43164 L 210.65625 120.63281 A 61.428569 61.428569 0 0 0 255.71484 61.427734 A 61.428569 61.428569 0 0 0 194.28516 0 z "
       id="rect931"
       transform="matrix(0.26458333,0,0,0.26458333,70.303574,-5.7589445)" />
    <text
       xml:space="preserve"
       style="font-style:normal;font-weight:normal;font-size:7.0555563px;line-height:1.25;font-family:sans-serif;letter-spacing:0px;word-spacing:0px;fill:#ffffff;fill-opacity:1;stroke:none;stroke-width:0.26458332"
       x="113.34127"
       y="13.694282"
       id="text1717"><tspan
         sodipodi:role="line"
         id="tspan1715"
         x="113.34127"
         y="13.694282"
         style="font-size:7.0555563px;fill:#ffffff;stroke-width:0.26458332">CRM</tspan></text>
    <text
       id="text1721"
       y="140.64729"
       x="215.70549"
       style="font-style:normal;font-weight:normal;font-size:7.0555563px;line-height:1.25;font-family:sans-serif;letter-spacing:0px;word-spacing:0px;fill:#ffffff;fill-opacity:1;stroke:none;stroke-width:0.26458332"
       xml:space="preserve"><tspan
         style="font-size:7.0555563px;fill:#ffffff;stroke-width:0.26458332"
         y="140.64729"
         x="215.70549"
         id="tspan1719"
         sodipodi:role="line">Shop</tspan></text>
    <text
       xml:space="preserve"
       style="font-style:normal;font-weight:normal;font-size:7.0555563px;line-height:1.25;font-family:sans-serif;letter-spacing:0px;word-spacing:0px;fill:#ffffff;fill-opacity:1;stroke:none;stroke-width:0.26458332"
       x="242.55028"
       y="55.658764"
       id="text1717-5"><tspan
         sodipodi:role="line"
         id="tspan1715-5"
         x="242.55028"
         y="55.658764"
         style="font-size:7.0555563px;fill:#ffffff;stroke-width:0.26458332">ERP</tspan></text>
    <text
       xml:space="preserve"
       style="font-style:normal;font-weight:normal;font-size:17.63888741px;line-height:1.25;font-family:sans-serif;letter-spacing:0px;word-spacing:0px;fill:#000000;fill-opacity:1;stroke:none;stroke-width:0.26458332"
       x="81.888542"
       y="57.787708"
       id="text1743"><tspan
         sodipodi:role="line"
         id="tspan1741"
         x="81.888542"
         y="73.39399"
         style="stroke-width:0.26458332" /></text>
    <text
       id="text1747"
       y="60.199181"
       x="76.992607"
       style="font-style:normal;font-weight:normal;font-size:7.0555563px;line-height:1.25;font-family:sans-serif;letter-spacing:0px;word-spacing:0px;fill:#ffffff;fill-opacity:1;stroke:none;stroke-width:0.26458332"
       xml:space="preserve"><tspan
         style="font-size:7.0555563px;fill:#ffffff;stroke-width:0.26458332"
         y="60.199181"
         x="76.992607"
         id="tspan1745"
         sodipodi:role="line">Office</tspan></text>
    <text
       id="text1751"
       y="129.422"
       x="97.037819"
       style="font-style:normal;font-weight:normal;font-size:7.0555563px;line-height:1.25;font-family:sans-serif;letter-spacing:0px;word-spacing:0px;fill:#ffffff;fill-opacity:1;stroke:none;stroke-width:0.26458332"
       xml:space="preserve"><tspan
         style="font-size:7.0555563px;fill:#ffffff;stroke-width:0.26458332"
         y="129.422"
         x="97.037819"
         id="tspan1749"
         sodipodi:role="line">Media</tspan></text>
    <text
       xml:space="preserve"
       style="font-style:normal;font-weight:normal;font-size:7.0555564px;line-height:1.25;font-family:sans-serif;letter-spacing:0px;word-spacing:0px;fill:#ffffff;fill-opacity:1;stroke:none;stroke-width:0.26458332;"
       x="150.7567"
       y="174.92265"
       id="text1755"><tspan
         sodipodi:role="line"
         id="tspan1753"
         x="150.7567"
         y="174.92265"
         style="font-size:7.0555564px;fill:#ffffff;stroke-width:0.26458332;">BI</tspan></text>
    <text
       xml:space="preserve"
       style="font-style:normal;font-weight:normal;font-size:7.0555563px;line-height:1.25;font-family:sans-serif;letter-spacing:0px;word-spacing:0px;fill:#ffffff;fill-opacity:1;stroke:none;stroke-width:0.26458332"
       x="302.41867"
       y="171.65375"
       id="text1717-3"><tspan
         sodipodi:role="line"
         id="tspan1715-8"
         x="302.41867"
         y="171.65375"
         style="font-size:7.0555563px;fill:#ffffff;stroke-width:0.26458332">CMS</tspan></text>
    <text
       xml:space="preserve"
       style="font-style:normal;font-weight:normal;font-size:7.0555563px;line-height:1.25;font-family:sans-serif;letter-spacing:0px;word-spacing:0px;fill:#ffffff;fill-opacity:1;stroke:none;stroke-width:0.26458332"
       x="185.88911"
       y="59.133266"
       id="text1717-6"><tspan
         sodipodi:role="line"
         id="tspan1715-0"
         x="185.88911"
         y="59.133266"
         style="font-size:7.0555563px;fill:#ffffff;stroke-width:0.26458332">SRM</tspan></text>
    <text
       id="text1795"
       y="16.102873"
       x="210.72621"
       style="font-style:normal;font-weight:normal;font-size:7.0555564px;line-height:1.25;font-family:sans-serif;letter-spacing:0px;word-spacing:0px;fill:#ffffff;fill-opacity:1;stroke:none;stroke-width:0.26458332;"
       xml:space="preserve"><tspan
         style="font-size:7.0555564px;fill:#ffffff;stroke-width:0.26458332;"
         y="16.102873"
         x="210.72621"
         id="tspan1793"
         sodipodi:role="line">Finance</tspan></text>
    <text
       id="text1795-3"
       y="24.499266"
       x="335.57007"
       style="font-style:normal;font-weight:normal;font-size:7.0555563px;line-height:1.25;font-family:sans-serif;letter-spacing:0px;word-spacing:0px;fill:#ffffff;fill-opacity:1;stroke:none;stroke-width:0.26458332"
       xml:space="preserve"><tspan
         style="font-size:7.0555563px;fill:#ffffff;stroke-width:0.26458332"
         y="24.499266"
         x="335.57007"
         id="tspan1793-3"
         sodipodi:role="line">Intranet</tspan></text>
  </g>
</svg>
