<?xml version="1.0" encoding="UTF-8" standalone="no"?>
<!-- Created with Inkscape (http://www.inkscape.org/) -->

<svg
   xmlns:dc="http://purl.org/dc/elements/1.1/"
   xmlns:cc="http://creativecommons.org/ns#"
   xmlns:rdf="http://www.w3.org/1999/02/22-rdf-syntax-ns#"
   xmlns:svg="http://www.w3.org/2000/svg"
   xmlns="http://www.w3.org/2000/svg"
   xmlns:xlink="http://www.w3.org/1999/xlink"
   xmlns:sodipodi="http://sodipodi.sourceforge.net/DTD/sodipodi-0.dtd"
   xmlns:inkscape="http://www.inkscape.org/namespaces/inkscape"
   width="139.66852"
   height="139.66852"
   viewBox="0 0 36.953961 36.953963"
   version="1.1"
   id="svg8"
   inkscape:version="0.92.3 (2405546, 2018-03-11)"
   sodipodi:docname="globe.svg">
  <defs
     id="defs2">
    <linearGradient
       id="linearGradient855"
       inkscape:collect="always">
      <stop
         id="stop851"
         offset="0"
         style="stop-color:#00ffff;stop-opacity:1" />
      <stop
         id="stop853"
         offset="1"
         style="stop-color:#950080;stop-opacity:1" />
    </linearGradient>
    <linearGradient
       id="linearGradient849"
       inkscape:collect="always">
      <stop
         id="stop845"
         offset="0"
         style="stop-color:#00ffff;stop-opacity:1" />
      <stop
         id="stop847"
         offset="1"
         style="stop-color:#950080;stop-opacity:1" />
    </linearGradient>
    <linearGradient
       inkscape:collect="always"
       id="linearGradient837">
      <stop
         style="stop-color:#00ffff;stop-opacity:1"
         offset="0"
         id="stop833" />
      <stop
         style="stop-color:#950080;stop-opacity:1"
         offset="1"
         id="stop835" />
    </linearGradient>
    <linearGradient
       inkscape:collect="always"
       xlink:href="#linearGradient837"
       id="linearGradient839"
       x1="199.26367"
       y1="80.583984"
       x2="221.21594"
       y2="119.42504"
       gradientUnits="userSpaceOnUse" />
    <linearGradient
       inkscape:collect="always"
       xlink:href="#linearGradient855"
       id="linearGradient841"
       x1="199.26367"
       y1="80.583984"
       x2="221.21594"
       y2="119.42504"
       gradientUnits="userSpaceOnUse" />
    <linearGradient
       inkscape:collect="always"
       xlink:href="#linearGradient849"
       id="linearGradient843"
       x1="199.26367"
       y1="80.583984"
       x2="221.21594"
       y2="119.42504"
       gradientUnits="userSpaceOnUse" />
  </defs>
  <sodipodi:namedview
     id="base"
     pagecolor="#ffffff"
     bordercolor="#666666"
     borderopacity="1.0"
     inkscape:pageopacity="0.0"
     inkscape:pageshadow="2"
     inkscape:zoom="2.8"
     inkscape:cx="0.70375586"
     inkscape:cy="70.114694"
     inkscape:document-units="mm"
     inkscape:current-layer="layer1"
     showgrid="false"
     inkscape:pagecheckerboard="true"
     units="px"
     inkscape:snap-bbox="true"
     inkscape:bbox-paths="true"
     inkscape:bbox-nodes="true"
     inkscape:snap-bbox-edge-midpoints="true"
     inkscape:snap-bbox-midpoints="true"
     inkscape:window-width="2560"
     inkscape:window-height="1051"
     inkscape:window-x="1280"
     inkscape:window-y="0"
     inkscape:window-maximized="1" />
  <metadata
     id="metadata5">
    <rdf:RDF>
      <cc:Work
         rdf:about="">
        <dc:format>image/svg+xml</dc:format>
        <dc:type
           rdf:resource="http://purl.org/dc/dcmitype/StillImage" />
        <dc:title />
      </cc:Work>
    </rdf:RDF>
  </metadata>
  <g
     inkscape:label="Layer 1"
     inkscape:groupmode="layer"
     id="layer1"
     transform="translate(-190.22189,-80.584656)">
    <path
       style="color:#000000;font-style:normal;font-variant:normal;font-weight:normal;font-stretch:normal;font-size:medium;line-height:normal;font-family:sans-serif;font-variant-ligatures:normal;font-variant-position:normal;font-variant-caps:normal;font-variant-numeric:normal;font-variant-alternates:normal;font-feature-settings:normal;text-indent:0;text-align:start;text-decoration:none;text-decoration-line:none;text-decoration-style:solid;text-decoration-color:#000000;letter-spacing:normal;word-spacing:normal;text-transform:none;writing-mode:lr-tb;direction:ltr;text-orientation:mixed;dominant-baseline:auto;baseline-shift:baseline;text-anchor:start;white-space:normal;shape-padding:0;clip-rule:nonzero;display:inline;overflow:visible;visibility:visible;opacity:1;isolation:auto;mix-blend-mode:normal;color-interpolation:sRGB;color-interpolation-filters:linearRGB;solid-color:#000000;solid-opacity:1;vector-effect:none;fill:url(#linearGradient839);fill-opacity:1;fill-rule:nonzero;stroke:none;stroke-width:1.32291663;stroke-linecap:butt;stroke-linejoin:round;stroke-miterlimit:4;stroke-dasharray:none;stroke-dashoffset:0;stroke-opacity:1;color-rendering:auto;image-rendering:auto;shape-rendering:auto;text-rendering:auto;enable-background:accumulate"
       d="m 208.69922,80.587891 c -10.19485,0 -18.47461,8.279764 -18.47461,18.474609 0,10.19485 8.27976,18.47266 18.47461,18.47266 10.19484,0 18.47266,-8.27781 18.47266,-18.47266 0,-10.194845 -8.27782,-18.474609 -18.47266,-18.474609 z m 0,1.322265 c 9.47989,0 17.15039,7.672456 17.15039,17.152344 0,9.47989 -7.6705,17.15039 -17.15039,17.15039 -9.47989,0 -17.15039,-7.6705 -17.15039,-17.15039 0,-9.479888 7.6705,-17.152344 17.15039,-17.152344 z"
       id="path868"
       inkscape:connector-curvature="0" />
    <path
       style="color:#000000;font-style:normal;font-variant:normal;font-weight:normal;font-stretch:normal;font-size:medium;line-height:normal;font-family:sans-serif;font-variant-ligatures:normal;font-variant-position:normal;font-variant-caps:normal;font-variant-numeric:normal;font-variant-alternates:normal;font-feature-settings:normal;text-indent:0;text-align:start;text-decoration:none;text-decoration-line:none;text-decoration-style:solid;text-decoration-color:#000000;letter-spacing:normal;word-spacing:normal;text-transform:none;writing-mode:lr-tb;direction:ltr;text-orientation:mixed;dominant-baseline:auto;baseline-shift:baseline;text-anchor:start;white-space:normal;shape-padding:0;clip-rule:nonzero;display:inline;overflow:visible;visibility:visible;opacity:1;isolation:auto;mix-blend-mode:normal;color-interpolation:sRGB;color-interpolation-filters:linearRGB;solid-color:#000000;solid-opacity:1;vector-effect:none;fill:url(#linearGradient841);fill-opacity:1;fill-rule:nonzero;stroke:none;stroke-width:1.32291663;stroke-linecap:butt;stroke-linejoin:round;stroke-miterlimit:4;stroke-dasharray:none;stroke-dashoffset:0;stroke-opacity:1;color-rendering:auto;image-rendering:auto;shape-rendering:auto;text-rendering:auto;enable-background:accumulate"
       d="m 208.69922,80.583984 c -2.78569,0 -5.15027,2.244285 -6.79688,5.587891 -1.6466,3.343606 -2.63867,7.882981 -2.63867,12.890625 0,5.00764 0.99207,9.54507 2.63867,12.88867 1.64661,3.34361 4.01119,5.58789 6.79688,5.58789 2.78569,0 5.15027,-2.24428 6.79687,-5.58789 1.64661,-3.3436 2.63868,-7.88103 2.63868,-12.88867 0,-5.007644 -0.99207,-9.547019 -2.63868,-12.890625 -1.6466,-3.343606 -4.01118,-5.587891 -6.79687,-5.587891 z m 0,1.324219 c 2.05979,0 4.08059,1.743311 5.60937,4.847656 1.52879,3.104346 2.50196,7.475043 2.50196,12.306641 0,4.8316 -0.97317,9.20034 -2.50196,12.30469 -1.52878,3.10434 -3.54958,4.84765 -5.60937,4.84765 -2.05979,0 -4.08255,-1.74331 -5.61133,-4.84765 -1.52878,-3.10435 -2.50195,-7.47309 -2.50195,-12.30469 0,-4.831598 0.97317,-9.202295 2.50195,-12.306641 1.52878,-3.104345 3.55154,-4.847656 5.61133,-4.847656 z"
       id="circle870"
       inkscape:connector-curvature="0" />
    <path
       style="color:#000000;font-style:normal;font-variant:normal;font-weight:normal;font-stretch:normal;font-size:medium;line-height:normal;font-family:sans-serif;font-variant-ligatures:normal;font-variant-position:normal;font-variant-caps:normal;font-variant-numeric:normal;font-variant-alternates:normal;font-feature-settings:normal;text-indent:0;text-align:start;text-decoration:none;text-decoration-line:none;text-decoration-style:solid;text-decoration-color:#000000;letter-spacing:normal;word-spacing:normal;text-transform:none;writing-mode:lr-tb;direction:ltr;text-orientation:mixed;dominant-baseline:auto;baseline-shift:baseline;text-anchor:start;white-space:normal;shape-padding:0;clip-rule:nonzero;display:inline;overflow:visible;visibility:visible;opacity:1;isolation:auto;mix-blend-mode:normal;color-interpolation:sRGB;color-interpolation-filters:linearRGB;solid-color:#000000;solid-opacity:1;vector-effect:none;fill:url(#linearGradient843);fill-opacity:1;fill-rule:nonzero;stroke:none;stroke-width:1.32291663;stroke-linecap:butt;stroke-linejoin:round;stroke-miterlimit:4;stroke-dasharray:none;stroke-dashoffset:0;stroke-opacity:1;color-rendering:auto;image-rendering:auto;shape-rendering:auto;text-rendering:auto;enable-background:accumulate"
       d="m 190.22266,99.0625 c 0,2.78569 2.24233,5.15027 5.58593,6.79688 3.34361,1.6466 7.88299,2.63671 12.89063,2.63671 5.00764,0 9.54506,-0.99011 12.88867,-2.63671 3.34361,-1.64661 5.58789,-4.01119 5.58789,-6.79688 0,-2.785689 -2.24428,-5.15222 -5.58789,-6.798828 -3.34361,-1.646609 -7.88103,-2.636719 -12.88867,-2.636719 -5.00764,0 -9.54702,0.99011 -12.89063,2.636719 -3.3436,1.646608 -5.58593,4.013139 -5.58593,6.798828 z m 1.32226,0 c 0,-2.059792 1.74527,-4.082547 4.84961,-5.611328 3.10435,-1.528781 7.47309,-2.501953 12.30469,-2.501953 4.8316,0 9.20034,0.973172 12.30469,2.501953 3.10434,1.528781 4.84961,3.551536 4.84961,5.611328 0,2.05979 -1.74527,4.08059 -4.84961,5.60938 -3.10435,1.52878 -7.47309,2.50195 -12.30469,2.50195 -4.8316,0 -9.20034,-0.97317 -12.30469,-2.50195 -3.10434,-1.52879 -4.84961,-3.54959 -4.84961,-5.60938 z"
       id="ellipse874"
       inkscape:connector-curvature="0" />
  </g>
</svg>
