<?xml version="1.0" encoding="UTF-8" standalone="no"?>
<!-- Created with Inkscape (http://www.inkscape.org/) -->

<svg
   xmlns:dc="http://purl.org/dc/elements/1.1/"
   xmlns:cc="http://creativecommons.org/ns#"
   xmlns:rdf="http://www.w3.org/1999/02/22-rdf-syntax-ns#"
   xmlns:svg="http://www.w3.org/2000/svg"
   xmlns="http://www.w3.org/2000/svg"
   xmlns:xlink="http://www.w3.org/1999/xlink"
   xmlns:sodipodi="http://sodipodi.sourceforge.net/DTD/sodipodi-0.dtd"
   xmlns:inkscape="http://www.inkscape.org/namespaces/inkscape"
   width="116.11861"
   height="79.958427"
   viewBox="0 0 30.723047 21.155668"
   version="1.1"
   id="svg8"
   inkscape:version="0.92.3 (2405546, 2018-03-11)"
   sodipodi:docname="scale.svg">
  <defs
     id="defs2">
    <linearGradient
       id="linearGradient864"
       inkscape:collect="always">
      <stop
         id="stop860"
         offset="0"
         style="stop-color:#00ffff;stop-opacity:1" />
      <stop
         id="stop862"
         offset="1"
         style="stop-color:#950080;stop-opacity:1" />
    </linearGradient>
    <linearGradient
       id="linearGradient858"
       inkscape:collect="always">
      <stop
         id="stop854"
         offset="0"
         style="stop-color:#00ffff;stop-opacity:1" />
      <stop
         id="stop856"
         offset="1"
         style="stop-color:#950080;stop-opacity:1" />
    </linearGradient>
    <linearGradient
       id="linearGradient852"
       inkscape:collect="always">
      <stop
         id="stop848"
         offset="0"
         style="stop-color:#00ffff;stop-opacity:1" />
      <stop
         id="stop850"
         offset="1"
         style="stop-color:#950080;stop-opacity:1" />
    </linearGradient>
    <linearGradient
       id="linearGradient846"
       inkscape:collect="always">
      <stop
         id="stop842"
         offset="0"
         style="stop-color:#00ffff;stop-opacity:1" />
      <stop
         id="stop844"
         offset="1"
         style="stop-color:#950080;stop-opacity:1" />
    </linearGradient>
    <linearGradient
       id="linearGradient840"
       inkscape:collect="always">
      <stop
         id="stop836"
         offset="0"
         style="stop-color:#00ffff;stop-opacity:1" />
      <stop
         id="stop838"
         offset="1"
         style="stop-color:#950080;stop-opacity:1" />
    </linearGradient>
    <linearGradient
       inkscape:collect="always"
       id="linearGradient822">
      <stop
         style="stop-color:#00ffff;stop-opacity:1"
         offset="0"
         id="stop818" />
      <stop
         style="stop-color:#950080;stop-opacity:1"
         offset="1"
         id="stop820" />
    </linearGradient>
    <linearGradient
       inkscape:collect="always"
       xlink:href="#linearGradient822"
       id="linearGradient824"
       x1="198.8437"
       y1="78.658691"
       x2="218.11385"
       y2="102.41895"
       gradientUnits="userSpaceOnUse" />
    <linearGradient
       inkscape:collect="always"
       xlink:href="#linearGradient864"
       id="linearGradient826"
       x1="198.8437"
       y1="78.658691"
       x2="218.11385"
       y2="102.41895"
       gradientUnits="userSpaceOnUse" />
    <linearGradient
       inkscape:collect="always"
       xlink:href="#linearGradient858"
       id="linearGradient828"
       x1="198.8437"
       y1="78.658691"
       x2="218.11385"
       y2="102.41895"
       gradientUnits="userSpaceOnUse" />
    <linearGradient
       inkscape:collect="always"
       xlink:href="#linearGradient852"
       id="linearGradient830"
       x1="198.8437"
       y1="78.658691"
       x2="218.11385"
       y2="102.41895"
       gradientUnits="userSpaceOnUse" />
    <linearGradient
       inkscape:collect="always"
       xlink:href="#linearGradient846"
       id="linearGradient832"
       x1="198.8437"
       y1="78.658691"
       x2="218.11385"
       y2="102.41895"
       gradientUnits="userSpaceOnUse" />
    <linearGradient
       inkscape:collect="always"
       xlink:href="#linearGradient840"
       id="linearGradient834"
       x1="198.8437"
       y1="78.658691"
       x2="218.11385"
       y2="102.41895"
       gradientUnits="userSpaceOnUse" />
  </defs>
  <sodipodi:namedview
     id="base"
     pagecolor="#ffffff"
     bordercolor="#666666"
     borderopacity="1.0"
     inkscape:pageopacity="0.0"
     inkscape:pageshadow="2"
     inkscape:zoom="5.6568542"
     inkscape:cx="42.816018"
     inkscape:cy="28.805411"
     inkscape:document-units="mm"
     inkscape:current-layer="layer1"
     showgrid="false"
     inkscape:pagecheckerboard="true"
     units="px"
     inkscape:snap-bbox="true"
     inkscape:bbox-paths="true"
     inkscape:bbox-nodes="true"
     inkscape:snap-bbox-edge-midpoints="true"
     inkscape:snap-bbox-midpoints="true"
     inkscape:window-width="2560"
     inkscape:window-height="1051"
     inkscape:window-x="1280"
     inkscape:window-y="0"
     inkscape:window-maximized="1"
     inkscape:snap-global="true"
     showguides="true"
     inkscape:guide-bbox="true" />
  <metadata
     id="metadata5">
    <rdf:RDF>
      <cc:Work
         rdf:about="">
        <dc:format>image/svg+xml</dc:format>
        <dc:type
           rdf:resource="http://purl.org/dc/dcmitype/StillImage" />
        <dc:title />
      </cc:Work>
    </rdf:RDF>
  </metadata>
  <g
     inkscape:label="Layer 1"
     inkscape:groupmode="layer"
     id="layer1"
     transform="translate(-193.23105,-80.140753)">
    <path
       style="color:#000000;font-style:normal;font-variant:normal;font-weight:normal;font-stretch:normal;font-size:medium;line-height:normal;font-family:sans-serif;font-variant-ligatures:normal;font-variant-position:normal;font-variant-caps:normal;font-variant-numeric:normal;font-variant-alternates:normal;font-feature-settings:normal;text-indent:0;text-align:start;text-decoration:none;text-decoration-line:none;text-decoration-style:solid;text-decoration-color:#000000;letter-spacing:normal;word-spacing:normal;text-transform:none;writing-mode:lr-tb;direction:ltr;text-orientation:mixed;dominant-baseline:auto;baseline-shift:baseline;text-anchor:start;white-space:normal;shape-padding:0;clip-rule:nonzero;display:inline;overflow:visible;visibility:visible;opacity:1;isolation:auto;mix-blend-mode:normal;color-interpolation:sRGB;color-interpolation-filters:linearRGB;solid-color:#000000;solid-opacity:1;vector-effect:none;fill:url(#linearGradient834);fill-opacity:1;fill-rule:nonzero;stroke:none;stroke-width:1.32291663;stroke-linecap:butt;stroke-linejoin:round;stroke-miterlimit:4;stroke-dasharray:none;stroke-dashoffset:0;stroke-opacity:1;color-rendering:auto;image-rendering:auto;shape-rendering:auto;text-rendering:auto;enable-background:accumulate"
       d="m 197.31048,89.643536 a 0.66322299,0.66322299 0 0 0 -0.53898,0.330212 l -3.43494,5.949508 -0.0145,0.02481 a 0.66322299,0.66322299 0 0 0 -0.005,0.0088 0.66152444,0.66152444 0 0 0 -0.0248,0.04961 0.66322299,0.66322299 0 0 0 -0.001,0.0026 0.66152444,0.66152444 0 0 0 -0.0217,0.05323 0.66322299,0.66322299 0 0 0 -0.005,0.01395 0.66152444,0.66152444 0 0 0 -0.015,0.05529 0.66322299,0.66322299 0 0 0 -0.001,0.0026 0.66152444,0.66152444 0 0 0 -0.01,0.05633 0.66322299,0.66322299 0 0 0 -0.002,0.01654 0.66152444,0.66152444 0 0 0 -0.005,0.05684 0.66322299,0.66322299 0 0 0 0,10e-4 0.66152444,0.66152444 0 0 0 -5.1e-4,0.0155 c 0,0.01675 0.002,0.03291 0.003,0.04961 a 0.66322299,0.66322299 0 0 0 0,5.29e-4 c 0.0273,2.240261 1.86231,4.063335 4.10879,4.063315 2.23602,2e-5 4.06532,-1.806387 4.10931,-4.032309 a 0.66322299,0.66322299 0 0 0 -0.0837,-0.413411 l -3.4494,-5.974339 a 0.66322299,0.66322299 0 0 0 -0.60927,-0.330212 z m 0.0351,1.988509 2.30064,3.98632 h -4.60127 z m -2.51716,5.312337 h 5.03225 c -0.32489,1.180429 -1.22895,2.124947 -2.51716,2.124935 -1.28803,9e-6 -2.19004,-0.944761 -2.51509,-2.124935 z"
       id="path859"
       inkscape:connector-curvature="0" />
    <path
       style="color:#000000;font-style:normal;font-variant:normal;font-weight:normal;font-stretch:normal;font-size:medium;line-height:normal;font-family:sans-serif;font-variant-ligatures:normal;font-variant-position:normal;font-variant-caps:normal;font-variant-numeric:normal;font-variant-alternates:normal;font-feature-settings:normal;text-indent:0;text-align:start;text-decoration:none;text-decoration-line:none;text-decoration-style:solid;text-decoration-color:#000000;letter-spacing:normal;word-spacing:normal;text-transform:none;writing-mode:lr-tb;direction:ltr;text-orientation:mixed;dominant-baseline:auto;baseline-shift:baseline;text-anchor:start;white-space:normal;shape-padding:0;clip-rule:nonzero;display:inline;overflow:visible;visibility:visible;opacity:1;isolation:auto;mix-blend-mode:normal;color-interpolation:sRGB;color-interpolation-filters:linearRGB;solid-color:#000000;solid-opacity:1;vector-effect:none;fill:url(#linearGradient832);fill-opacity:1;fill-rule:nonzero;stroke:none;stroke-width:0.96258664;stroke-linecap:butt;stroke-linejoin:miter;stroke-miterlimit:4;stroke-dasharray:none;stroke-dashoffset:0;stroke-opacity:1;color-rendering:auto;image-rendering:auto;shape-rendering:auto;text-rendering:auto;enable-background:accumulate"
       d="m 207.93154,99.974146 v 1.322274 h 11.91028 v -1.322274 z"
       id="path870"
       inkscape:connector-curvature="0" />
    <path
       style="color:#000000;font-style:normal;font-variant:normal;font-weight:normal;font-stretch:normal;font-size:medium;line-height:normal;font-family:sans-serif;font-variant-ligatures:normal;font-variant-position:normal;font-variant-caps:normal;font-variant-numeric:normal;font-variant-alternates:normal;font-feature-settings:normal;text-indent:0;text-align:start;text-decoration:none;text-decoration-line:none;text-decoration-style:solid;text-decoration-color:#000000;letter-spacing:normal;word-spacing:normal;text-transform:none;writing-mode:lr-tb;direction:ltr;text-orientation:mixed;dominant-baseline:auto;baseline-shift:baseline;text-anchor:start;white-space:normal;shape-padding:0;clip-rule:nonzero;display:inline;overflow:visible;visibility:visible;opacity:1;isolation:auto;mix-blend-mode:normal;color-interpolation:sRGB;color-interpolation-filters:linearRGB;solid-color:#000000;solid-opacity:1;vector-effect:none;fill:url(#linearGradient830);fill-opacity:1;fill-rule:nonzero;stroke:none;stroke-width:1.13545859;stroke-linecap:butt;stroke-linejoin:miter;stroke-miterlimit:4;stroke-dasharray:none;stroke-dashoffset:0;stroke-opacity:1;color-rendering:auto;image-rendering:auto;shape-rendering:auto;text-rendering:auto;enable-background:accumulate"
       d="m 207.93154,85.842216 v 14.13193 h 1.32446 v -14.13193 c -0.20969,0.0481 -0.43243,0.07462 -0.66249,0.07462 -0.23005,0 -0.45228,-0.02651 -0.66197,-0.07462 z"
       id="path874"
       inkscape:connector-curvature="0" />
    <path
       style="color:#000000;font-style:normal;font-variant:normal;font-weight:normal;font-stretch:normal;font-size:medium;line-height:normal;font-family:sans-serif;font-variant-ligatures:normal;font-variant-position:normal;font-variant-caps:normal;font-variant-numeric:normal;font-variant-alternates:normal;font-feature-settings:normal;text-indent:0;text-align:start;text-decoration:none;text-decoration-line:none;text-decoration-style:solid;text-decoration-color:#000000;letter-spacing:normal;word-spacing:normal;text-transform:none;writing-mode:lr-tb;direction:ltr;text-orientation:mixed;dominant-baseline:auto;baseline-shift:baseline;text-anchor:start;white-space:normal;shape-padding:0;clip-rule:nonzero;display:inline;overflow:visible;visibility:visible;opacity:1;isolation:auto;mix-blend-mode:normal;color-interpolation:sRGB;color-interpolation-filters:linearRGB;solid-color:#000000;solid-opacity:1;vector-effect:none;fill:url(#linearGradient828);fill-opacity:1;fill-rule:nonzero;stroke:none;stroke-width:1.32291663;stroke-linecap:butt;stroke-linejoin:miter;stroke-miterlimit:4;stroke-dasharray:none;stroke-dashoffset:0;stroke-opacity:1;color-rendering:auto;image-rendering:auto;shape-rendering:auto;text-rendering:auto;enable-background:accumulate"
       d="m 197.55783,85.963224 0.34213,1.276841 8.78664,-2.354374 c -0.1168,-0.185177 -0.20828,-0.389981 -0.26763,-0.611475 -0.0595,-0.222209 -0.0828,-0.446055 -0.074,-0.6655 z m 12.94261,-3.467964 c 0.11735,0.185647 0.20913,0.39113 0.26867,0.613338 0.0593,0.221494 0.0825,0.444602 0.074,0.66337 l 8.78664,-2.354374 -0.34212,-1.276841 z m -1.90866,1.188727 c 0.004,-0.001 -0.003,0.01102 -0.004,0.007 -0.001,-0.004 0.0114,0.005 0.007,0.006 -0.004,0.001 0.003,-0.01315 0.004,-0.0091 0.001,0.004 -0.0113,-0.0028 -0.007,-0.0039 z"
       id="path876"
       inkscape:connector-curvature="0" />
    <path
       style="color:#000000;font-style:normal;font-variant:normal;font-weight:normal;font-stretch:normal;font-size:medium;line-height:normal;font-family:sans-serif;font-variant-ligatures:normal;font-variant-position:normal;font-variant-caps:normal;font-variant-numeric:normal;font-variant-alternates:normal;font-feature-settings:normal;text-indent:0;text-align:start;text-decoration:none;text-decoration-line:none;text-decoration-style:solid;text-decoration-color:#000000;letter-spacing:normal;word-spacing:normal;text-transform:none;writing-mode:lr-tb;direction:ltr;text-orientation:mixed;dominant-baseline:auto;baseline-shift:baseline;text-anchor:start;white-space:normal;shape-padding:0;clip-rule:nonzero;display:inline;overflow:visible;visibility:visible;opacity:1;isolation:auto;mix-blend-mode:normal;color-interpolation:sRGB;color-interpolation-filters:linearRGB;solid-color:#000000;solid-opacity:1;vector-effect:none;fill:url(#linearGradient826);fill-opacity:1;fill-rule:nonzero;stroke:none;stroke-width:1.32291663;stroke-linecap:butt;stroke-linejoin:round;stroke-miterlimit:4;stroke-dasharray:none;stroke-dashoffset:0;stroke-opacity:1;color-rendering:auto;image-rendering:auto;shape-rendering:auto;text-rendering:auto;enable-background:accumulate"
       d="m 208.59375,81.439453 c -1.23575,0 -2.25195,1.014249 -2.25195,2.25 0,1.235752 1.0162,2.251953 2.25195,2.251953 1.23575,0 2.25195,-1.016201 2.25195,-2.251953 0,-1.235751 -1.0162,-2.25 -2.25195,-2.25 z m 0,1.322266 c 0.52079,0 0.92969,0.40694 0.92969,0.927734 0,0.520794 -0.4089,0.929688 -0.92969,0.929688 -0.52079,0 -0.92969,-0.408894 -0.92969,-0.929688 0,-0.520794 0.4089,-0.927734 0.92969,-0.927734 z"
       id="path878"
       inkscape:connector-curvature="0" />
    <path
       style="color:#000000;font-style:normal;font-variant:normal;font-weight:normal;font-stretch:normal;font-size:medium;line-height:normal;font-family:sans-serif;font-variant-ligatures:normal;font-variant-position:normal;font-variant-caps:normal;font-variant-numeric:normal;font-variant-alternates:normal;font-feature-settings:normal;text-indent:0;text-align:start;text-decoration:none;text-decoration-line:none;text-decoration-style:solid;text-decoration-color:#000000;letter-spacing:normal;word-spacing:normal;text-transform:none;writing-mode:lr-tb;direction:ltr;text-orientation:mixed;dominant-baseline:auto;baseline-shift:baseline;text-anchor:start;white-space:normal;shape-padding:0;clip-rule:nonzero;display:inline;overflow:visible;visibility:visible;opacity:1;isolation:auto;mix-blend-mode:normal;color-interpolation:sRGB;color-interpolation-filters:linearRGB;solid-color:#000000;solid-opacity:1;vector-effect:none;fill:url(#linearGradient824);fill-opacity:1;fill-rule:nonzero;stroke:none;stroke-width:1.32291663;stroke-linecap:butt;stroke-linejoin:round;stroke-miterlimit:4;stroke-dasharray:none;stroke-dashoffset:0;stroke-opacity:1;color-rendering:auto;image-rendering:auto;shape-rendering:auto;text-rendering:auto;enable-background:accumulate"
       d="m 219.80678,83.8227 a 0.66322299,0.66322299 0 0 0 -0.53898,0.330212 l -3.43494,5.949508 -0.0145,0.0248 a 0.66322299,0.66322299 0 0 0 -0.003,0.0052 0.66152444,0.66152444 0 0 0 -0.0274,0.05323 0.66322299,0.66322299 0 0 0 -0.001,0.0026 0.66152444,0.66152444 0 0 0 -0.0227,0.05788 0.66322299,0.66322299 0 0 0 -0.002,0.0057 0.66152444,0.66152444 0 0 0 -0.0155,0.05426 0.66322299,0.66322299 0 0 0 -0.003,0.0124 0.66152444,0.66152444 0 0 0 -0.01,0.05633 0.66322299,0.66322299 0 0 0 -10e-4,0.0062 0.66152444,0.66152444 0 0 0 -0.005,0.06201 0.66322299,0.66322299 0 0 0 0,0.001 0.66152444,0.66152444 0 0 0 -5.3e-4,0.0155 c 0,0.01116 0.001,0.02193 0.002,0.03307 a 0.66322299,0.66322299 0 0 0 0.002,0.02325 c 0.0307,2.237389 1.86391,4.057132 4.10828,4.057117 2.2355,2.1e-5 4.06449,-1.805553 4.10931,-4.030762 a 0.66322299,0.66322299 0 0 0 -0.0481,-0.340547 0.66322299,0.66322299 0 0 0 -0.0357,-0.07441 l -3.4494,-5.974317 a 0.66322299,0.66322299 0 0 0 -0.60927,-0.330212 z m 0.0351,1.988509 2.30064,3.98632 h -4.60127 z m -2.51716,5.312337 h 5.03225 c -0.32488,1.180428 -1.22893,2.124947 -2.51716,2.124935 -1.28803,9e-6 -2.19003,-0.944761 -2.51509,-2.124935 z"
       id="path907"
       inkscape:connector-curvature="0" />
  </g>
</svg>
