<?xml version="1.0" encoding="UTF-8" standalone="no"?>
<!-- Created with Inkscape (http://www.inkscape.org/) -->

<svg
   xmlns:dc="http://purl.org/dc/elements/1.1/"
   xmlns:cc="http://creativecommons.org/ns#"
   xmlns:rdf="http://www.w3.org/1999/02/22-rdf-syntax-ns#"
   xmlns:svg="http://www.w3.org/2000/svg"
   xmlns="http://www.w3.org/2000/svg"
   xmlns:sodipodi="http://sodipodi.sourceforge.net/DTD/sodipodi-0.dtd"
   xmlns:inkscape="http://www.inkscape.org/namespaces/inkscape"
   width="2048"
   height="1400"
   viewBox="0 0 541.86665 370.41668"
   version="1.1"
   id="svg8"
   inkscape:version="0.92.3 (2405546, 2018-03-11)"
   sodipodi:docname="workflow-darft.svg">
  <defs
     id="defs2" />
  <sodipodi:namedview
     id="base"
     pagecolor="#ffffff"
     bordercolor="#666666"
     borderopacity="1.0"
     inkscape:pageopacity="0.0"
     inkscape:pageshadow="2"
     inkscape:zoom="0.49497475"
     inkscape:cx="583.54276"
     inkscape:cy="581.45794"
     inkscape:document-units="mm"
     inkscape:current-layer="layer1"
     showgrid="false"
     units="px"
     inkscape:pagecheckerboard="true"
     inkscape:window-width="2560"
     inkscape:window-height="1051"
     inkscape:window-x="1280"
     inkscape:window-y="0"
     inkscape:window-maximized="1"
     inkscape:snap-bbox="true"
     inkscape:bbox-paths="true"
     inkscape:bbox-nodes="true"
     inkscape:snap-bbox-edge-midpoints="true"
     inkscape:snap-bbox-midpoints="true"
     inkscape:snap-global="false" />
  <metadata
     id="metadata5">
    <rdf:RDF>
      <cc:Work
         rdf:about="">
        <dc:format>image/svg+xml</dc:format>
        <dc:type
           rdf:resource="http://purl.org/dc/dcmitype/StillImage" />
        <dc:title></dc:title>
      </cc:Work>
    </rdf:RDF>
  </metadata>
  <g
     inkscape:label="Layer 1"
     inkscape:groupmode="layer"
     id="layer1"
     transform="translate(0,73.416683)">
    <path
       inkscape:connector-curvature="0"
       id="path857"
       d="m 43.298547,-48.845612 a 9.8912122,7.5107884 44.762349 0 0 -8.79184,6.094316 9.8912122,7.5107884 44.762349 0 0 8.79184,10.805847 9.8912122,7.5107884 44.762349 0 0 8.79184,-6.094317 9.8912122,7.5107884 44.762349 0 0 -8.79184,-10.805846 z m -12.31904,15.832371 c -2.05306,-0.550115 -3.70602,0.659935 -3.70602,2.712995 0,0.03292 0.002,0.06587 0.002,0.0988 -6e-4,0.03255 -0.002,0.06476 -0.002,0.09778 v 29.64723906 c 0,2.05307004 1.65296,4.14863004 3.70602,4.69874004 2.05307,0.55011 3.70571,-0.65971 3.70571,-2.71277 V -24.608566 l 0.75143,0.201343 V 9.3270531 38.789563 c 0,2.05306 1.65296,4.14893 3.70602,4.69905 2.05306,0.55011 3.70572,-0.66002 3.70572,-2.71308 V 11.128593 7.9297431 c 0,-0.24932 0.20084,-0.39635 0.45016,-0.32954 0.24932,0.0668 0.44986,0.32138 0.44986,0.5707 v 7.9594199 24.94338 c 0,2.05306 1.65296,4.14893 3.70602,4.69905 2.05306,0.55012 3.70572,-0.66002 3.70572,-2.71309 v -29.51951 -33.734277 l 0.75141,0.201342 V 6.1453331 c 0,2.05306 1.65297,4.1486199 3.70603,4.6987299 2.05306,0.55012 3.70571,-0.65971 3.70571,-2.7127599 V -21.515945 c 0,-0.03304 -0.002,-0.06608 -0.002,-0.09911 6e-4,-0.03249 0.002,-0.06455 0.002,-0.09746 0,-2.053061 -1.65265,-4.148852 -3.70571,-4.698967 z"
       style="fill:#d45500;fill-opacity:1;stroke:none;stroke-width:3.76437521;stroke-linejoin:round;stroke-miterlimit:4;stroke-dasharray:none;stroke-opacity:1" />
    <path
       style="fill:#ff7f2a;fill-opacity:1;stroke:none;stroke-width:3.76437521;stroke-linejoin:round;stroke-miterlimit:4;stroke-dasharray:none;stroke-opacity:1"
       d="m 39.880557,-47.934149 a 9.8912122,7.5107884 44.762349 0 0 -8.79184,6.094316 9.8912122,7.5107884 44.762349 0 0 8.79184,10.805843 9.8912122,7.5107884 44.762349 0 0 8.79184,-6.094313 9.8912122,7.5107884 44.762349 0 0 -8.79184,-10.805846 z m -12.31904,15.832373 c -2.05306,-0.550119 -3.70602,0.659936 -3.70602,2.712997 0,0.03292 0.002,0.06587 0.002,0.09879 -6e-4,0.03255 -0.002,0.06476 -0.002,0.09778 V 0.45502306 c 0,2.05307004 1.65296,4.14863004 3.70602,4.69874004 2.05306,0.55012 3.70571,-0.65971 3.70571,-2.71277 V -23.697099 l 0.75143,0.201341 v 33.734271 29.46251 c 0,2.05306 1.65296,4.14893 3.70602,4.69905 2.05306,0.55011 3.70571,-0.66002 3.70571,-2.71308 V 12.040053 8.8412031 c 0,-0.24932 0.20085,-0.39635 0.45017,-0.32954 0.24932,0.0668 0.44986,0.32138 0.44986,0.5707 v 7.9594199 24.94338 c 0,2.05306 1.65296,4.14893 3.70602,4.69905 2.05306,0.55012 3.70571,-0.66002 3.70571,-2.71308 v -29.51952 -33.734277 l 0.75142,0.201341 V 7.0567931 c 0,2.05306 1.65297,4.1486199 3.70603,4.6987399 2.05306,0.55011 3.70571,-0.65972 3.70571,-2.7127699 V -20.604484 c 0,-0.03304 -0.002,-0.06608 -0.002,-0.09911 6e-4,-0.03249 0.002,-0.06455 0.002,-0.09747 0,-2.05306 -1.65265,-4.148845 -3.70571,-4.698965 z"
       id="path3606"
       inkscape:connector-curvature="0" />
    <path
       style="color:#000000;font-style:normal;font-variant:normal;font-weight:normal;font-stretch:normal;font-size:medium;line-height:normal;font-family:sans-serif;font-variant-ligatures:normal;font-variant-position:normal;font-variant-caps:normal;font-variant-numeric:normal;font-variant-alternates:normal;font-feature-settings:normal;text-indent:0;text-align:start;text-decoration:none;text-decoration-line:none;text-decoration-style:solid;text-decoration-color:#000000;letter-spacing:normal;word-spacing:normal;text-transform:none;writing-mode:lr-tb;direction:ltr;text-orientation:mixed;dominant-baseline:auto;baseline-shift:baseline;text-anchor:start;white-space:normal;shape-padding:0;clip-rule:nonzero;display:inline;overflow:visible;visibility:visible;opacity:1;isolation:auto;mix-blend-mode:normal;color-interpolation:sRGB;color-interpolation-filters:linearRGB;solid-color:#000000;solid-opacity:1;vector-effect:none;fill:#c837ab;fill-opacity:1;fill-rule:nonzero;stroke:none;stroke-width:171.36598206;stroke-linecap:butt;stroke-linejoin:round;stroke-miterlimit:4;stroke-dasharray:none;stroke-dashoffset:0;stroke-opacity:1;color-rendering:auto;image-rendering:auto;shape-rendering:auto;text-rendering:auto;enable-background:accumulate"
       d="m 1023.2695,263.07227 -26.52145,31.29296 26.52145,34.42969 v 105.84375 c 53.9952,17.81959 102.7755,52.04384 140.6289,95.41602 l 73.627,-53.90039 13.0293,1.49414 33.9121,-35.85742 c -69.242,-82.88428 -160.727,-148.06779 -261.1973,-178.71875 z"
       transform="matrix(0.26458333,0,0,0.26458333,0,-73.416683)"
       id="ellipse844"
       inkscape:connector-curvature="0"
       sodipodi:nodetypes="ccccccccc" />
    <path
       style="color:#000000;font-style:normal;font-variant:normal;font-weight:normal;font-stretch:normal;font-size:medium;line-height:normal;font-family:sans-serif;font-variant-ligatures:normal;font-variant-position:normal;font-variant-caps:normal;font-variant-numeric:normal;font-variant-alternates:normal;font-feature-settings:normal;text-indent:0;text-align:start;text-decoration:none;text-decoration-line:none;text-decoration-style:solid;text-decoration-color:#000000;letter-spacing:normal;word-spacing:normal;text-transform:none;writing-mode:lr-tb;direction:ltr;text-orientation:mixed;dominant-baseline:auto;baseline-shift:baseline;text-anchor:start;white-space:normal;shape-padding:0;clip-rule:nonzero;display:inline;overflow:visible;visibility:visible;opacity:1;isolation:auto;mix-blend-mode:normal;color-interpolation:sRGB;color-interpolation-filters:linearRGB;solid-color:#000000;solid-opacity:1;vector-effect:none;fill:#de87cd;fill-opacity:1;fill-rule:nonzero;stroke:none;stroke-width:45.3405838;stroke-linecap:butt;stroke-linejoin:round;stroke-miterlimit:4;stroke-dasharray:none;stroke-dashoffset:0;stroke-opacity:1;color-rendering:auto;image-rendering:auto;shape-rendering:auto;text-rendering:auto;enable-background:accumulate"
       d="M 263.72292,4.4673223 V 50.009247 c 13.68468,5.388009 25.9157,14.744691 35.28828,26.278727 L 330.87592,52.961377 C 313.23274,30.966616 289.72239,13.374136 263.72292,4.4673223 Z"
       id="path842"
       inkscape:connector-curvature="0"
       sodipodi:nodetypes="ccccc" />
    <path
       inkscape:connector-curvature="0"
       style="color:#000000;font-style:normal;font-variant:normal;font-weight:normal;font-stretch:normal;font-size:medium;line-height:normal;font-family:sans-serif;font-variant-ligatures:normal;font-variant-position:normal;font-variant-caps:normal;font-variant-numeric:normal;font-variant-alternates:normal;font-feature-settings:normal;text-indent:0;text-align:start;text-decoration:none;text-decoration-line:none;text-decoration-style:solid;text-decoration-color:#000000;letter-spacing:normal;word-spacing:normal;text-transform:none;writing-mode:lr-tb;direction:ltr;text-orientation:mixed;dominant-baseline:auto;baseline-shift:baseline;text-anchor:start;white-space:normal;shape-padding:0;clip-rule:nonzero;display:inline;overflow:visible;visibility:visible;opacity:1;isolation:auto;mix-blend-mode:normal;color-interpolation:sRGB;color-interpolation-filters:linearRGB;solid-color:#000000;solid-opacity:1;vector-effect:none;fill:#aa4400;fill-opacity:1;fill-rule:nonzero;stroke:none;stroke-width:45.3405838;stroke-linecap:butt;stroke-linejoin:round;stroke-miterlimit:4;stroke-dasharray:none;stroke-dashoffset:0;stroke-opacity:1;color-rendering:auto;image-rendering:auto;shape-rendering:auto;text-rendering:auto;enable-background:accumulate"
       d="m -111.81676,62.658579 c -17.0187,0.08214 -32.39559,4.704948 -44.99053,13.03228 l -8.92297,5.638413 0.42219,0.214458 -6.23838,3.750675 0.74466,2.434995 c -12.15521,13.47196 -19.62847,31.78952 -20.4432,53.51146 l 25.20208,6.75308 7.39593,9.9999 -32.59852,-8.73486 -11.02672,6.98148 12.32483,6.47299 c 3.46044,22.32606 13.2929,44.3041 27.47067,63.36254 l 19.50476,-14.27819 3.28972,0.51056 9.10745,-9.58598 c -8.79369,-12.37076 -14.39021,-26.77653 -15.27762,-41.30032 l -8.89713,-2.38384 8.89816,-5.63376 c 0.88698,-14.04822 6.48393,-25.45495 15.27608,-33.11374 l -27.7735,-35.215421 8.25531,4.189407 1.93115,-2.612761 23.25697,29.488635 c 7.74333,-4.72352 17.21629,-7.07079 27.71821,-6.53448 l 2.47117,9.155 7.01714,-7.9282 V 65.439286 c -8.30711,-1.917361 -16.38214,-2.818042 -24.11791,-2.780707 z m 32.13602,4.929415 -7.01714,8.279596 7.01714,9.109522 V 112.9816 c 14.28623,4.71477 27.19268,13.76994 37.20806,25.24549 l 19.48048,-14.26114 3.44733,0.39532 8.97258,-9.48727 C -28.89257,92.944197 -53.09798,75.697727 -79.68074,67.587994 Z M -4.9018504,122.0627 -36.8048,145.41683 l -9.19531,9.65058 19.96107,10.63656 c 2.51254,6.82632 4.0771,13.90498 4.51133,21.01267 l 24.8114096,6.64817 7.7116804,10.08466 -32.52412,-8.71472 -11.0236,6.982 7.69874,8.7912 c -2.65065,6.94339 -6.73904,12.80057 -11.95067,17.34054 l 22.86889,28.9972 -0.0595,11.26341 -28.47934,-36.11047 c -10.01442,6.10906 -22.92019,8.24839 -37.20652,5.30717 l -7.01714,7.68377 7.01714,5.71231 v 31.99753 c 22.06323,5.09273 42.48851,3.01387 59.27082,-4.76509 l 0.86299,0.0873 5.39139,-3.34709 c 1.21793,-0.70934 2.413,-1.45113 3.58378,-2.22517 l -0.43204,-0.54779 6.1009196,-3.60339 v 0 0 C 12.11864,254.53902 22.87927,233.21631 23.86643,206.89778 l -8.89765,-2.38382 8.89868,-5.63376 C 22.8803,172.03277 12.11972,144.94364 -4.9018504,122.0627 Z m -120.0050696,87.84942 -31.89986,23.35206 -8.92193,9.45059 17.43045,7.8512 -0.28576,-8.18864 c 14.24915,14.65292 31.24747,26.58439 49.71686,34.17258 l 4.15117,12.13104 7.01714,-8.13024 v -45.39362 c -14.28573,-4.7149 -27.19257,-13.76963 -37.20807,-25.24497 z"
       id="ellipse844-3" />
    <path
       style="color:#000000;font-style:normal;font-variant:normal;font-weight:normal;font-stretch:normal;font-size:medium;line-height:normal;font-family:sans-serif;font-variant-ligatures:normal;font-variant-position:normal;font-variant-caps:normal;font-variant-numeric:normal;font-variant-alternates:normal;font-feature-settings:normal;text-indent:0;text-align:start;text-decoration:none;text-decoration-line:none;text-decoration-style:solid;text-decoration-color:#000000;letter-spacing:normal;word-spacing:normal;text-transform:none;writing-mode:lr-tb;direction:ltr;text-orientation:mixed;dominant-baseline:auto;baseline-shift:baseline;text-anchor:start;white-space:normal;shape-padding:0;clip-rule:nonzero;display:inline;overflow:visible;visibility:visible;opacity:1;isolation:auto;mix-blend-mode:normal;color-interpolation:sRGB;color-interpolation-filters:linearRGB;solid-color:#000000;solid-opacity:1;vector-effect:none;fill:#ff7f2a;fill-opacity:1;fill-rule:nonzero;stroke:none;stroke-width:45.3405838;stroke-linecap:butt;stroke-linejoin:round;stroke-miterlimit:4;stroke-dasharray:none;stroke-dashoffset:0;stroke-opacity:1;color-rendering:auto;image-rendering:auto;shape-rendering:auto;text-rendering:auto;enable-background:accumulate"
       d="m -94.716,73.419291 c -27.1398,-7.271958 -52.02466,-3.746618 -71.01427,7.910189 l 31.97996,40.54897 c 10.64361,-5.65875 24.19117,-7.09432 39.03431,-3.11722 z m 8.01812,2.448171 v 45.541928 c 13.68468,5.38801 25.9157,14.74469 35.28828,26.27872 l 31.86472,-23.32659 c -17.64318,-21.99476 -41.15353,-39.587244 -67.153,-48.494058 z m -84.84857,9.426755 c -18.15038,13.682356 -29.70054,35.615183 -30.72474,62.928363 l 45.3931,12.16305 c 0.94962,-15.04591 7.30195,-27.06187 17.19585,-34.68922 z m 157.52268,46.364923 -31.97635,23.40831 c 7.7384,11.75163 12.62661,25.1408 13.45036,38.63185 l 45.38999,12.16221 c -0.94967,-25.83177 -10.9470904,-51.88686 -26.864,-74.20237 z m -188.24845,24.58128 c 1.02473,27.86198 12.57486,55.98499 30.72577,79.39397 l 31.86421,-23.32622 c -9.8953,-12.9298 -16.24539,-28.3498 -17.19585,-43.90443 z m 169.71987,45.4763 c -0.82394,13.04857 -5.71251,23.81764 -13.4493,31.42256 l 31.97735,40.54621 C 1.8926396,259.9 11.89027,239.2023 12.84023,213.87962 Z m -18.85828,35.90361 c -9.37178,6.51222 -21.60252,9.31459 -35.28725,7.36911 v 45.54038 c 25.99902,5.02618 49.50796,0.0315 67.15094,-12.50795 z m -82.34019,-18.31489 -31.9779,23.40945 c 18.98973,21.83275 43.87347,38.69415 71.01272,45.96619 v -45.33986 c -14.84268,-3.9772 -28.39033,-12.67313 -39.03482,-24.03578 z"
       id="path842-6"
       inkscape:connector-curvature="0" />
    <path
       inkscape:connector-curvature="0"
       style="color:#000000;font-style:normal;font-variant:normal;font-weight:normal;font-stretch:normal;font-size:medium;line-height:normal;font-family:sans-serif;font-variant-ligatures:normal;font-variant-position:normal;font-variant-caps:normal;font-variant-numeric:normal;font-variant-alternates:normal;font-feature-settings:normal;text-indent:0;text-align:start;text-decoration:none;text-decoration-line:none;text-decoration-style:solid;text-decoration-color:#000000;letter-spacing:normal;word-spacing:normal;text-transform:none;writing-mode:lr-tb;direction:ltr;text-orientation:mixed;dominant-baseline:auto;baseline-shift:baseline;text-anchor:start;white-space:normal;shape-padding:0;clip-rule:nonzero;display:inline;overflow:visible;visibility:visible;opacity:1;isolation:auto;mix-blend-mode:normal;color-interpolation:sRGB;color-interpolation-filters:linearRGB;solid-color:#000000;solid-opacity:1;vector-effect:none;fill:#892ca0;fill-opacity:1;fill-rule:nonzero;stroke:none;stroke-width:45.3405838;stroke-linecap:butt;stroke-linejoin:round;stroke-miterlimit:4;stroke-dasharray:none;stroke-dashoffset:0;stroke-opacity:1;color-rendering:auto;image-rendering:auto;shape-rendering:auto;text-rendering:auto;enable-background:accumulate"
       d="m 328.89206,123.33461 -11.0236,6.982 7.69874,8.7912 c -2.65065,6.94339 -6.73904,12.80057 -11.95067,17.34054 l 22.86889,28.99721 -0.0595,11.2634 -28.47934,-36.11047 c 9.39907,10.20477 28.23575,38.45948 28.44992,41.68686 l 9.12142,-5.38731 v 0 0 c 17.02152,-13.75916 27.78215,-35.08187 28.76931,-61.4004 l -8.89765,-2.38382 c -15.50433,-2.51583 -24.10133,-6.4577 -36.49752,-9.77921 z"
       id="ellipse844-3-3"
       sodipodi:nodetypes="cccccccccccccc" />
    <path
       inkscape:connector-curvature="0"
       style="color:#000000;font-style:normal;font-variant:normal;font-weight:normal;font-stretch:normal;font-size:medium;line-height:normal;font-family:sans-serif;font-variant-ligatures:normal;font-variant-position:normal;font-variant-caps:normal;font-variant-numeric:normal;font-variant-alternates:normal;font-feature-settings:normal;text-indent:0;text-align:start;text-decoration:none;text-decoration-line:none;text-decoration-style:solid;text-decoration-color:#000000;letter-spacing:normal;word-spacing:normal;text-transform:none;writing-mode:lr-tb;direction:ltr;text-orientation:mixed;dominant-baseline:auto;baseline-shift:baseline;text-anchor:start;white-space:normal;shape-padding:0;clip-rule:nonzero;display:inline;overflow:visible;visibility:visible;opacity:1;isolation:auto;mix-blend-mode:normal;color-interpolation:sRGB;color-interpolation-filters:linearRGB;solid-color:#000000;solid-opacity:1;vector-effect:none;fill:#a02c89;fill-opacity:1;fill-rule:nonzero;stroke:none;stroke-width:45.3405838;stroke-linecap:butt;stroke-linejoin:round;stroke-miterlimit:4;stroke-dasharray:none;stroke-dashoffset:0;stroke-opacity:1;color-rendering:auto;image-rendering:auto;shape-rendering:auto;text-rendering:auto;enable-background:accumulate"
       d="M 345.51895,50.662687 313.616,74.016818 304.42069,83.6674 324.38176,94.303959 c 2.51254,6.826321 4.0771,13.904981 4.51133,21.012671 l 24.81141,6.64817 9.55653,12.4967 c 3.65286,-2.39618 7.64298,-4.93543 11.02723,-6.98131 -0.98716,-26.84743 -11.74774,-53.936561 -28.76931,-76.817503 z"
       id="ellipse844-3-7"
       sodipodi:nodetypes="ccccccccc" />
    <path
       style="color:#000000;font-style:normal;font-variant:normal;font-weight:normal;font-stretch:normal;font-size:medium;line-height:normal;font-family:sans-serif;font-variant-ligatures:normal;font-variant-position:normal;font-variant-caps:normal;font-variant-numeric:normal;font-variant-alternates:normal;font-feature-settings:normal;text-indent:0;text-align:start;text-decoration:none;text-decoration-line:none;text-decoration-style:solid;text-decoration-color:#000000;letter-spacing:normal;word-spacing:normal;text-transform:none;writing-mode:lr-tb;direction:ltr;text-orientation:mixed;dominant-baseline:auto;baseline-shift:baseline;text-anchor:start;white-space:normal;shape-padding:0;clip-rule:nonzero;display:inline;overflow:visible;visibility:visible;opacity:1;isolation:auto;mix-blend-mode:normal;color-interpolation:sRGB;color-interpolation-filters:linearRGB;solid-color:#000000;solid-opacity:1;vector-effect:none;fill:#d35fbc;fill-opacity:1;fill-rule:nonzero;stroke:none;stroke-width:45.3405838;stroke-linecap:butt;stroke-linejoin:round;stroke-miterlimit:4;stroke-dasharray:none;stroke-dashoffset:0;stroke-opacity:1;color-rendering:auto;image-rendering:auto;shape-rendering:auto;text-rendering:auto;enable-background:accumulate"
       d="m 336.39703,60.259128 -31.97635,23.408311 c 7.7384,11.75163 12.62661,25.140801 13.45036,38.631851 l 45.38999,12.16221 c -0.94967,-25.83177 -10.94709,-51.886861 -26.864,-74.202372 z"
       id="path842-6-5"
       inkscape:connector-curvature="0"
       sodipodi:nodetypes="ccccc" />
    <path
       inkscape:connector-curvature="0"
       style="color:#000000;font-style:normal;font-variant:normal;font-weight:normal;font-stretch:normal;font-size:medium;line-height:normal;font-family:sans-serif;font-variant-ligatures:normal;font-variant-position:normal;font-variant-caps:normal;font-variant-numeric:normal;font-variant-alternates:normal;font-feature-settings:normal;text-indent:0;text-align:start;text-decoration:none;text-decoration-line:none;text-decoration-style:solid;text-decoration-color:#000000;letter-spacing:normal;word-spacing:normal;text-transform:none;writing-mode:lr-tb;direction:ltr;text-orientation:mixed;dominant-baseline:auto;baseline-shift:baseline;text-anchor:start;white-space:normal;shape-padding:0;clip-rule:nonzero;display:inline;overflow:visible;visibility:visible;opacity:1;isolation:auto;mix-blend-mode:normal;color-interpolation:sRGB;color-interpolation-filters:linearRGB;solid-color:#000000;solid-opacity:1;vector-effect:none;fill:#660080;fill-opacity:1;fill-rule:nonzero;stroke:none;stroke-width:45.3405838;stroke-linecap:butt;stroke-linejoin:round;stroke-miterlimit:4;stroke-dasharray:none;stroke-dashoffset:0;stroke-opacity:1;color-rendering:auto;image-rendering:auto;shape-rendering:auto;text-rendering:auto;enable-background:accumulate"
       d="m 307.94657,160.59849 c -10.01442,6.10906 -22.92019,8.24839 -37.20652,5.30717 l -7.01714,7.68377 7.01714,5.71231 v 31.99753 c 22.06323,5.09273 42.48851,3.01387 59.27082,-4.76509 l 0.86299,0.0873 6.1001,-6.32365 c -0.35508,-2.08929 -0.72091,-1.47599 -1.63203,-2.63122 -11.46808,-40.56775 25.90642,29.90139 -27.39536,-37.06812 z"
       id="ellipse844-3-2"
       sodipodi:nodetypes="cccccccccc" />
    <path
       style="color:#000000;font-style:normal;font-variant:normal;font-weight:normal;font-stretch:normal;font-size:medium;line-height:normal;font-family:sans-serif;font-variant-ligatures:normal;font-variant-position:normal;font-variant-caps:normal;font-variant-numeric:normal;font-variant-alternates:normal;font-feature-settings:normal;text-indent:0;text-align:start;text-decoration:none;text-decoration-line:none;text-decoration-style:solid;text-decoration-color:#000000;letter-spacing:normal;word-spacing:normal;text-transform:none;writing-mode:lr-tb;direction:ltr;text-orientation:mixed;dominant-baseline:auto;baseline-shift:baseline;text-anchor:start;white-space:normal;shape-padding:0;clip-rule:nonzero;display:inline;overflow:visible;visibility:visible;opacity:1;isolation:auto;mix-blend-mode:normal;color-interpolation:sRGB;color-interpolation-filters:linearRGB;solid-color:#000000;solid-opacity:1;vector-effect:none;fill:#ab37c8;fill-opacity:1;fill-rule:nonzero;stroke:none;stroke-width:45.3405838;stroke-linecap:butt;stroke-linejoin:round;stroke-miterlimit:4;stroke-dasharray:none;stroke-dashoffset:0;stroke-opacity:1;color-rendering:auto;image-rendering:auto;shape-rendering:auto;text-rendering:auto;enable-background:accumulate"
       d="m 363.26103,134.46137 c -242.17402,108.35908 -121.08701,54.17954 0,0 z m -45.39258,-4.14479 c -0.82394,13.04857 -5.71251,23.81764 -13.4493,31.42256 l 31.97735,40.54621 c 15.91694,-13.78549 25.91457,-34.48319 26.86453,-59.80587 z"
       id="path842-6-56"
       inkscape:connector-curvature="0"
       sodipodi:nodetypes="ccccccc" />
    <path
       style="color:#000000;font-style:normal;font-variant:normal;font-weight:normal;font-stretch:normal;font-size:medium;line-height:normal;font-family:sans-serif;font-variant-ligatures:normal;font-variant-position:normal;font-variant-caps:normal;font-variant-numeric:normal;font-variant-alternates:normal;font-feature-settings:normal;text-indent:0;text-align:start;text-decoration:none;text-decoration-line:none;text-decoration-style:solid;text-decoration-color:#000000;letter-spacing:normal;word-spacing:normal;text-transform:none;writing-mode:lr-tb;direction:ltr;text-orientation:mixed;dominant-baseline:auto;baseline-shift:baseline;text-anchor:start;white-space:normal;shape-padding:0;clip-rule:nonzero;display:inline;overflow:visible;visibility:visible;opacity:1;isolation:auto;mix-blend-mode:normal;color-interpolation:sRGB;color-interpolation-filters:linearRGB;solid-color:#000000;solid-opacity:1;vector-effect:none;fill:#8800aa;fill-opacity:1;fill-rule:nonzero;stroke:none;stroke-width:45.3405838;stroke-linecap:butt;stroke-linejoin:round;stroke-miterlimit:4;stroke-dasharray:none;stroke-dashoffset:0;stroke-opacity:1;color-rendering:auto;image-rendering:auto;shape-rendering:auto;text-rendering:auto;enable-background:accumulate"
       d="m 304.41914,161.73914 c -202.94609,90.1739 -101.47305,45.08695 0,0 z m -5.40898,4.48105 c -9.37178,6.51222 -21.60252,9.31459 -35.28725,7.36911 v 45.54038 c 25.99902,5.02618 49.50796,0.0315 67.15094,-12.50795 z"
       id="path842-6-9"
       inkscape:connector-curvature="0"
       sodipodi:nodetypes="ccccccc" />
    <path
       inkscape:connector-curvature="0"
       style="color:#000000;font-style:normal;font-variant:normal;font-weight:normal;font-stretch:normal;font-size:medium;line-height:normal;font-family:sans-serif;font-variant-ligatures:normal;font-variant-position:normal;font-variant-caps:normal;font-variant-numeric:normal;font-variant-alternates:normal;font-feature-settings:normal;text-indent:0;text-align:start;text-decoration:none;text-decoration-line:none;text-decoration-style:solid;text-decoration-color:#000000;letter-spacing:normal;word-spacing:normal;text-transform:none;writing-mode:lr-tb;direction:ltr;text-orientation:mixed;dominant-baseline:auto;baseline-shift:baseline;text-anchor:start;white-space:normal;shape-padding:0;clip-rule:nonzero;display:inline;overflow:visible;visibility:visible;opacity:1;isolation:auto;mix-blend-mode:normal;color-interpolation:sRGB;color-interpolation-filters:linearRGB;solid-color:#000000;solid-opacity:1;vector-effect:none;fill:#7137c8;fill-opacity:1;fill-rule:nonzero;stroke:none;stroke-width:45.3405838;stroke-linecap:butt;stroke-linejoin:round;stroke-miterlimit:4;stroke-dasharray:none;stroke-dashoffset:0;stroke-opacity:1;color-rendering:auto;image-rendering:auto;shape-rendering:auto;text-rendering:auto;enable-background:accumulate"
       d="m 225.51387,138.51199 -31.89986,23.35206 -8.92194,9.45059 17.43046,7.8512 -0.28576,-8.18864 c 14.24915,14.65293 31.24747,26.5844 49.71686,34.17258 l 4.15117,12.13104 7.01714,-8.13024 v -45.39362 c -14.28573,-4.7149 -27.19257,-13.76963 -37.20807,-25.24497 z"
       id="ellipse844-3-1"
       sodipodi:nodetypes="cccccccccc" />
    <path
       style="color:#000000;font-style:normal;font-variant:normal;font-weight:normal;font-stretch:normal;font-size:medium;line-height:normal;font-family:sans-serif;font-variant-ligatures:normal;font-variant-position:normal;font-variant-caps:normal;font-variant-numeric:normal;font-variant-alternates:normal;font-feature-settings:normal;text-indent:0;text-align:start;text-decoration:none;text-decoration-line:none;text-decoration-style:solid;text-decoration-color:#000000;letter-spacing:normal;word-spacing:normal;text-transform:none;writing-mode:lr-tb;direction:ltr;text-orientation:mixed;dominant-baseline:auto;baseline-shift:baseline;text-anchor:start;white-space:normal;shape-padding:0;clip-rule:nonzero;display:inline;overflow:visible;visibility:visible;opacity:1;isolation:auto;mix-blend-mode:normal;color-interpolation:sRGB;color-interpolation-filters:linearRGB;solid-color:#000000;solid-opacity:1;vector-effect:none;fill:#8d5fd3;fill-opacity:1;fill-rule:nonzero;stroke:none;stroke-width:45.3405838;stroke-linecap:butt;stroke-linejoin:round;stroke-miterlimit:4;stroke-dasharray:none;stroke-dashoffset:0;stroke-opacity:1;color-rendering:auto;image-rendering:auto;shape-rendering:auto;text-rendering:auto;enable-background:accumulate"
       d="m 216.66997,147.90531 -31.9779,23.40945 c 18.98973,21.83275 43.87347,38.69415 71.01272,45.96619 v -45.33986 c -14.84268,-3.9772 -28.39033,-12.67313 -39.03482,-24.03578 z"
       id="path842-6-2"
       inkscape:connector-curvature="0"
       sodipodi:nodetypes="ccccc" />
    <path
       inkscape:connector-curvature="0"
       style="color:#000000;font-style:normal;font-variant:normal;font-weight:normal;font-stretch:normal;font-size:medium;line-height:normal;font-family:sans-serif;font-variant-ligatures:normal;font-variant-position:normal;font-variant-caps:normal;font-variant-numeric:normal;font-variant-alternates:normal;font-feature-settings:normal;text-indent:0;text-align:start;text-decoration:none;text-decoration-line:none;text-decoration-style:solid;text-decoration-color:#000000;letter-spacing:normal;word-spacing:normal;text-transform:none;writing-mode:lr-tb;direction:ltr;text-orientation:mixed;dominant-baseline:auto;baseline-shift:baseline;text-anchor:start;white-space:normal;shape-padding:0;clip-rule:nonzero;display:inline;overflow:visible;visibility:visible;opacity:1;isolation:auto;mix-blend-mode:normal;color-interpolation:sRGB;color-interpolation-filters:linearRGB;solid-color:#000000;solid-opacity:1;vector-effect:none;fill:#5a2ca0;fill-opacity:1;fill-rule:nonzero;stroke:none;stroke-width:45.3405838;stroke-linecap:butt;stroke-linejoin:round;stroke-miterlimit:4;stroke-dasharray:none;stroke-dashoffset:0;stroke-opacity:1;color-rendering:auto;image-rendering:auto;shape-rendering:auto;text-rendering:auto;enable-background:accumulate"
       d="m 159.1753,77.85897 -11.02672,6.981478 12.32483,6.472992 c 3.46044,22.32606 13.2929,44.30411 27.47067,63.36255 l 19.50476,-14.2782 3.28972,0.51056 9.10745,-9.58598 C 211.05232,118.95161 205.4558,104.54584 204.56839,90.022048 186.70185,85.64712 174.30632,81.913367 159.1753,77.85897 Z"
       id="ellipse844-3-70"
       sodipodi:nodetypes="ccccccccc" />
    <path
       style="color:#000000;font-style:normal;font-variant:normal;font-weight:normal;font-stretch:normal;font-size:medium;line-height:normal;font-family:sans-serif;font-variant-ligatures:normal;font-variant-position:normal;font-variant-caps:normal;font-variant-numeric:normal;font-variant-alternates:normal;font-feature-settings:normal;text-indent:0;text-align:start;text-decoration:none;text-decoration-line:none;text-decoration-style:solid;text-decoration-color:#000000;letter-spacing:normal;word-spacing:normal;text-transform:none;writing-mode:lr-tb;direction:ltr;text-orientation:mixed;dominant-baseline:auto;baseline-shift:baseline;text-anchor:start;white-space:normal;shape-padding:0;clip-rule:nonzero;display:inline;overflow:visible;visibility:visible;opacity:1;isolation:auto;mix-blend-mode:normal;color-interpolation:sRGB;color-interpolation-filters:linearRGB;solid-color:#000000;solid-opacity:1;vector-effect:none;fill:#7137c8;fill-opacity:1;fill-rule:nonzero;stroke:none;stroke-width:45.3405838;stroke-linecap:butt;stroke-linejoin:round;stroke-miterlimit:4;stroke-dasharray:none;stroke-dashoffset:0;stroke-opacity:1;color-rendering:auto;image-rendering:auto;shape-rendering:auto;text-rendering:auto;enable-background:accumulate"
       d="m 193.54271,88.98562 c -129.028473,138.67624 -64.51424,69.33812 0,0 z m -45.39413,-4.145211 c 1.02473,27.861981 12.57486,55.985001 30.72577,79.393971 l 31.86421,-23.32622 c -9.8953,-12.9298 -16.24539,-28.3498 -17.19585,-43.904432 z"
       id="path842-6-93"
       inkscape:connector-curvature="0"
       sodipodi:nodetypes="ccccccc" />
    <path
       inkscape:connector-curvature="0"
       style="color:#000000;font-style:normal;font-variant:normal;font-weight:normal;font-stretch:normal;font-size:medium;line-height:normal;font-family:sans-serif;font-variant-ligatures:normal;font-variant-position:normal;font-variant-caps:normal;font-variant-numeric:normal;font-variant-alternates:normal;font-feature-settings:normal;text-indent:0;text-align:start;text-decoration:none;text-decoration-line:none;text-decoration-style:solid;text-decoration-color:#000000;letter-spacing:normal;word-spacing:normal;text-transform:none;writing-mode:lr-tb;direction:ltr;text-orientation:mixed;dominant-baseline:auto;baseline-shift:baseline;text-anchor:start;white-space:normal;shape-padding:0;clip-rule:nonzero;display:inline;overflow:visible;visibility:visible;opacity:1;isolation:auto;mix-blend-mode:normal;color-interpolation:sRGB;color-interpolation-filters:linearRGB;solid-color:#000000;solid-opacity:1;vector-effect:none;fill:#5a2ca0;fill-opacity:1;fill-rule:nonzero;stroke:none;stroke-width:45.3405838;stroke-linecap:butt;stroke-linejoin:round;stroke-miterlimit:4;stroke-dasharray:none;stroke-dashoffset:0;stroke-opacity:1;color-rendering:auto;image-rendering:auto;shape-rendering:auto;text-rendering:auto;enable-background:accumulate"
       d="m 184.69054,9.9290043 c 1.51642,0.2404217 -5.17431,3.5792197 -5.81619,3.9651327 l 0.74466,2.434995 c -12.15521,13.471959 -19.62847,31.789521 -20.4432,53.511461 l 25.20208,6.753079 7.39593,9.999901 -32.59852,-8.734859 c 17.90834,1.719924 32.63851,12.212688 34.76706,10.86502 l 10.62706,-6.719542 C 205.4564,67.955974 211.05335,56.549244 219.8455,48.890453 180.03972,5.3614337 195.54978,22.227713 184.69054,9.9290043 Z"
       id="ellipse844-3-6"
       sodipodi:nodetypes="ccccccccccc" />
    <path
       style="color:#000000;font-style:normal;font-variant:normal;font-weight:normal;font-stretch:normal;font-size:medium;line-height:normal;font-family:sans-serif;font-variant-ligatures:normal;font-variant-position:normal;font-variant-caps:normal;font-variant-numeric:normal;font-variant-alternates:normal;font-feature-settings:normal;text-indent:0;text-align:start;text-decoration:none;text-decoration-line:none;text-decoration-style:solid;text-decoration-color:#000000;letter-spacing:normal;word-spacing:normal;text-transform:none;writing-mode:lr-tb;direction:ltr;text-orientation:mixed;dominant-baseline:auto;baseline-shift:baseline;text-anchor:start;white-space:normal;shape-padding:0;clip-rule:nonzero;display:inline;overflow:visible;visibility:visible;opacity:1;isolation:auto;mix-blend-mode:normal;color-interpolation:sRGB;color-interpolation-filters:linearRGB;solid-color:#000000;solid-opacity:1;vector-effect:none;fill:#9955ff;fill-opacity:1;fill-rule:nonzero;stroke:none;stroke-width:45.3405838;stroke-linecap:butt;stroke-linejoin:round;stroke-miterlimit:4;stroke-dasharray:none;stroke-dashoffset:0;stroke-opacity:1;color-rendering:auto;image-rendering:auto;shape-rendering:auto;text-rendering:auto;enable-background:accumulate"
       d="m 216.67049,50.478183 c -144.446993,164.347867 -72.2235,82.173937 0,0 z M 178.87435,13.893949 c -18.15038,13.682356 -29.70054,35.615185 -30.72474,62.928363 l 45.3931,12.163052 c 0.94962,-15.045912 7.30195,-27.061872 17.19585,-34.689222 z"
       id="path842-6-0"
       inkscape:connector-curvature="0"
       sodipodi:nodetypes="ccccccc" />
    <path
       inkscape:connector-curvature="0"
       style="color:#000000;font-style:normal;font-variant:normal;font-weight:normal;font-stretch:normal;font-size:medium;line-height:normal;font-family:sans-serif;font-variant-ligatures:normal;font-variant-position:normal;font-variant-caps:normal;font-variant-numeric:normal;font-variant-alternates:normal;font-feature-settings:normal;text-indent:0;text-align:start;text-decoration:none;text-decoration-line:none;text-decoration-style:solid;text-decoration-color:#000000;letter-spacing:normal;word-spacing:normal;text-transform:none;writing-mode:lr-tb;direction:ltr;text-orientation:mixed;dominant-baseline:auto;baseline-shift:baseline;text-anchor:start;white-space:normal;shape-padding:0;clip-rule:nonzero;display:inline;overflow:visible;visibility:visible;opacity:1;isolation:auto;mix-blend-mode:normal;color-interpolation:sRGB;color-interpolation-filters:linearRGB;solid-color:#000000;solid-opacity:1;vector-effect:none;fill:#7f2aff;fill-opacity:1;fill-rule:nonzero;stroke:none;stroke-width:45.3405838;stroke-linecap:butt;stroke-linejoin:round;stroke-miterlimit:4;stroke-dasharray:none;stroke-dashoffset:0;stroke-opacity:1;color-rendering:auto;image-rendering:auto;shape-rendering:auto;text-rendering:auto;enable-background:accumulate"
       d="m 238.60404,-8.7416886 c -17.0187,0.08214 -32.39559,4.704948 -44.99053,13.03228 l -8.92297,5.6384126 c 19.18403,22.974058 30.59525,34.767265 7.38146,3.746027 l 8.25531,4.189407 1.93115,-2.612761 23.25697,29.488636 c 7.74333,-4.723522 17.21629,-7.070791 27.71821,-6.534481 l 2.47117,9.155001 7.01714,-7.928199 V -5.9609816 c -8.30711,-1.917361 -16.38214,-2.818042 -24.11791,-2.780707 z"
       id="ellipse844-3-62"
       sodipodi:nodetypes="sccccccccccs" />
    <path
       style="color:#000000;font-style:normal;font-variant:normal;font-weight:normal;font-stretch:normal;font-size:medium;line-height:normal;font-family:sans-serif;font-variant-ligatures:normal;font-variant-position:normal;font-variant-caps:normal;font-variant-numeric:normal;font-variant-alternates:normal;font-feature-settings:normal;text-indent:0;text-align:start;text-decoration:none;text-decoration-line:none;text-decoration-style:solid;text-decoration-color:#000000;letter-spacing:normal;word-spacing:normal;text-transform:none;writing-mode:lr-tb;direction:ltr;text-orientation:mixed;dominant-baseline:auto;baseline-shift:baseline;text-anchor:start;white-space:normal;shape-padding:0;clip-rule:nonzero;display:inline;overflow:visible;visibility:visible;opacity:1;isolation:auto;mix-blend-mode:normal;color-interpolation:sRGB;color-interpolation-filters:linearRGB;solid-color:#000000;solid-opacity:1;vector-effect:none;fill:#b380ff;fill-opacity:1;fill-rule:nonzero;stroke:none;stroke-width:45.3405838;stroke-linecap:butt;stroke-linejoin:round;stroke-miterlimit:4;stroke-dasharray:none;stroke-dashoffset:0;stroke-opacity:1;color-rendering:auto;image-rendering:auto;shape-rendering:auto;text-rendering:auto;enable-background:accumulate"
       d="m 255.7048,2.0190234 c -27.1398,-7.271958 -52.02466,-3.746618 -71.01427,7.9101886 l 31.97996,40.548971 c 10.64361,-5.658749 24.19117,-7.09432 39.03431,-3.11722 z"
       id="path842-6-6"
       inkscape:connector-curvature="0"
       sodipodi:nodetypes="ccccc" />
  </g>
</svg>
