<?xml version="1.0" encoding="UTF-8" standalone="no"?>
<!-- Created with Inkscape (http://www.inkscape.org/) -->

<svg
   xmlns:dc="http://purl.org/dc/elements/1.1/"
   xmlns:cc="http://creativecommons.org/ns#"
   xmlns:rdf="http://www.w3.org/1999/02/22-rdf-syntax-ns#"
   xmlns:svg="http://www.w3.org/2000/svg"
   xmlns="http://www.w3.org/2000/svg"
   xmlns:sodipodi="http://sodipodi.sourceforge.net/DTD/sodipodi-0.dtd"
   xmlns:inkscape="http://www.inkscape.org/namespaces/inkscape"
   width="150"
   height="150"
   viewBox="0 0 39.687499 39.687501"
   version="1.1"
   id="svg877"
   inkscape:version="0.92.3 (2405546, 2018-03-11)"
   sodipodi:docname="cloud-thin.svg">
  <defs
     id="defs871" />
  <sodipodi:namedview
     id="base"
     pagecolor="#ffffff"
     bordercolor="#666666"
     borderopacity="1.0"
     inkscape:pageopacity="0.0"
     inkscape:pageshadow="2"
     inkscape:zoom="5.6"
     inkscape:cx="21.877002"
     inkscape:cy="76.047264"
     inkscape:document-units="mm"
     inkscape:current-layer="layer1"
     showgrid="true"
     units="px"
     inkscape:pagecheckerboard="true"
     showguides="true"
     inkscape:guide-bbox="true"
     inkscape:snap-bbox="true"
     inkscape:bbox-paths="true"
     inkscape:snap-bbox-edge-midpoints="true"
     inkscape:snap-bbox-midpoints="true"
     inkscape:bbox-nodes="true"
     inkscape:snap-intersection-paths="true"
     inkscape:object-paths="true"
     inkscape:snap-smooth-nodes="true"
     inkscape:snap-midpoints="true"
     inkscape:snap-object-midpoints="true"
     inkscape:snap-center="true"
     inkscape:snap-text-baseline="true"
     inkscape:snap-page="true"
     inkscape:snap-grids="true"
     inkscape:window-width="2560"
     inkscape:window-height="1051"
     inkscape:window-x="1280"
     inkscape:window-y="0"
     inkscape:window-maximized="1"
     inkscape:snap-global="false"
     inkscape:snap-others="false"
     inkscape:snap-nodes="false">
    <sodipodi:guide
       position="-9.2604167,19.84375"
       orientation="0,1"
       id="guide1422"
       inkscape:locked="false" />
    <inkscape:grid
       type="xygrid"
       id="grid1426" />
    <sodipodi:guide
       position="19.84375,44.979168"
       orientation="1,0"
       id="guide1428"
       inkscape:locked="false" />
    <sodipodi:guide
       position="6.6145832,38.364584"
       orientation="1,0"
       id="guide1449"
       inkscape:locked="false" />
    <sodipodi:guide
       position="13.229166,38.364584"
       orientation="1,0"
       id="guide1451"
       inkscape:locked="false" />
    <sodipodi:guide
       position="26.458333,46.302083"
       orientation="1,0"
       id="guide1453"
       inkscape:locked="false" />
    <sodipodi:guide
       position="33.072917,46.302083"
       orientation="1,0"
       id="guide1455"
       inkscape:locked="false" />
    <sodipodi:guide
       position="-25.135416,26.458334"
       orientation="0,1"
       id="guide1457"
       inkscape:locked="false" />
    <sodipodi:guide
       position="-19.84375,33.072917"
       orientation="0,1"
       id="guide1459"
       inkscape:locked="false" />
    <sodipodi:guide
       position="-11.90625,13.229167"
       orientation="0,1"
       id="guide1461"
       inkscape:locked="false" />
    <sodipodi:guide
       position="-7.9374998,6.6145835"
       orientation="0,1"
       id="guide1463"
       inkscape:locked="false" />
  </sodipodi:namedview>
  <metadata
     id="metadata874">
    <rdf:RDF>
      <cc:Work
         rdf:about="">
        <dc:format>image/svg+xml</dc:format>
        <dc:type
           rdf:resource="http://purl.org/dc/dcmitype/StillImage" />
        <dc:title></dc:title>
      </cc:Work>
    </rdf:RDF>
  </metadata>
  <g
     inkscape:label="Layer 1"
     inkscape:groupmode="layer"
     id="layer1"
     transform="translate(0,-257.31248)">
    <path
       style="color:#000000;font-style:normal;font-variant:normal;font-weight:normal;font-stretch:normal;font-size:medium;line-height:normal;font-family:sans-serif;font-variant-ligatures:normal;font-variant-position:normal;font-variant-caps:normal;font-variant-numeric:normal;font-variant-alternates:normal;font-feature-settings:normal;text-indent:0;text-align:start;text-decoration:none;text-decoration-line:none;text-decoration-style:solid;text-decoration-color:#000000;letter-spacing:normal;word-spacing:normal;text-transform:none;writing-mode:lr-tb;direction:ltr;text-orientation:mixed;dominant-baseline:auto;baseline-shift:baseline;text-anchor:start;white-space:normal;shape-padding:0;clip-rule:nonzero;display:inline;overflow:visible;visibility:visible;opacity:1;isolation:auto;mix-blend-mode:normal;color-interpolation:sRGB;color-interpolation-filters:linearRGB;solid-color:#000000;solid-opacity:1;vector-effect:none;fill:#000000;fill-opacity:1;fill-rule:nonzero;stroke:none;stroke-width:2.64583325;stroke-linecap:butt;stroke-linejoin:miter;stroke-miterlimit:4;stroke-dasharray:none;stroke-dashoffset:0;stroke-opacity:1;color-rendering:auto;image-rendering:auto;shape-rendering:auto;text-rendering:auto;enable-background:accumulate"
       d="m 22.19794,269.05589 c -3.759363,0.006 -7.208103,1.69323 -9.631528,4.64727 -0.427339,-0.13855 -0.641237,-0.21097 -1.265625,-0.24218 h -0.002 -0.0039 c -2.4639907,9.4e-4 -4.841473,1.35156 -5.9179689,3.70703 -1.0152065,0.16486 -1.9699028,0.51364 -2.6738281,1.2168 -0.9057356,0.90474 -1.3804498,2.20574 -1.3808594,3.63085 v 0.0508 l 0.00391,0.0527 c 0.044316,0.56809 0.2376037,1.36216 0.875,2.05664 0.6373962,0.69449 1.6893906,1.16189 2.9960937,1.18945 h 0.015625 l 29.2500007,-0.0918 0.02539,-0.002 c 1.203119,-0.0509 2.3504,-0.59336 3.011719,-1.52929 0.661319,-0.93593 0.865234,-2.08108 0.865234,-3.35742 -4.5e-5,-3.01889 -2.486239,-5.8734 -5.970703,-6.10157 -2.145169,-2.93084 -5.323449,-4.77267 -8.822265,-5.16406 -0.727698,-0.081 -0.818469,-0.0767 -1.374295,-0.0632 z m 0.05011,2.53786 h 0.002 0.002 c 3.322853,0.006 6.44553,1.72588 8.371094,4.66211 l 0.423828,0.64844 0.773437,-0.0527 c 0.05133,-0.004 0.108135,-0.007 0.166016,-0.008 h 0.002 c 2.237146,0.001 3.730445,1.94307 3.730469,3.54102 0,0.96615 -0.190618,1.56555 -0.378906,1.83203 -0.187506,0.26536 -0.349425,0.38333 -0.960938,0.41015 l -29.1249998,0.0918 c -0.7737696,-0.0163 -0.9851582,-0.20307 -1.1035156,-0.33203 -0.1047107,-0.11409 -0.1445336,-0.28095 -0.1640625,-0.41992 0.013531,-0.82917 0.2389829,-1.36241 0.5859375,-1.70899 0.3569198,-0.35653 0.8871127,-0.59443 1.6972656,-0.60351 l 0.9882813,-0.01 0.2695313,-0.95117 c 0.479595,-1.69068 1.9919351,-2.58457 3.7675782,-2.58594 0.434827,0.002 0.866097,0.0852 1.277344,0.2461 l 0.958984,0.375 0.599609,-0.8379 c 1.94553,-2.71939 4.943388,-4.29031 8.117188,-4.29687 z"
       id="path1127"
       inkscape:connector-curvature="0"
       sodipodi:nodetypes="cccccccccccccccsccccccccccccccccccccccccccccc" />
  </g>
</svg>
