<?xml version="1.0" encoding="UTF-8" standalone="no"?>
<!-- Created with Inkscape (http://www.inkscape.org/) -->

<svg
   xmlns:dc="http://purl.org/dc/elements/1.1/"
   xmlns:cc="http://creativecommons.org/ns#"
   xmlns:rdf="http://www.w3.org/1999/02/22-rdf-syntax-ns#"
   xmlns:svg="http://www.w3.org/2000/svg"
   xmlns="http://www.w3.org/2000/svg"
   xmlns:sodipodi="http://sodipodi.sourceforge.net/DTD/sodipodi-0.dtd"
   xmlns:inkscape="http://www.inkscape.org/namespaces/inkscape"
   width="150"
   height="150"
   viewBox="0 0 39.687499 39.687501"
   version="1.1"
   id="svg877"
   inkscape:version="0.92.3 (2405546, 2018-03-11)"
   sodipodi:docname="clouds-thin.svg">
  <defs
     id="defs871" />
  <sodipodi:namedview
     id="base"
     pagecolor="#ffffff"
     bordercolor="#666666"
     borderopacity="1.0"
     inkscape:pageopacity="0.0"
     inkscape:pageshadow="2"
     inkscape:zoom="5.6"
     inkscape:cx="21.877002"
     inkscape:cy="76.047264"
     inkscape:document-units="mm"
     inkscape:current-layer="layer1"
     showgrid="true"
     units="px"
     inkscape:pagecheckerboard="true"
     showguides="true"
     inkscape:guide-bbox="true"
     inkscape:snap-bbox="true"
     inkscape:bbox-paths="true"
     inkscape:snap-bbox-edge-midpoints="true"
     inkscape:snap-bbox-midpoints="true"
     inkscape:bbox-nodes="true"
     inkscape:snap-intersection-paths="true"
     inkscape:object-paths="true"
     inkscape:snap-smooth-nodes="true"
     inkscape:snap-midpoints="true"
     inkscape:snap-object-midpoints="true"
     inkscape:snap-center="true"
     inkscape:snap-text-baseline="true"
     inkscape:snap-page="true"
     inkscape:snap-grids="true"
     inkscape:window-width="2560"
     inkscape:window-height="1051"
     inkscape:window-x="1280"
     inkscape:window-y="0"
     inkscape:window-maximized="1"
     inkscape:snap-global="false"
     inkscape:snap-others="false"
     inkscape:snap-nodes="false">
    <sodipodi:guide
       position="-9.2604167,19.84375"
       orientation="0,1"
       id="guide1422"
       inkscape:locked="false" />
    <inkscape:grid
       type="xygrid"
       id="grid1426" />
    <sodipodi:guide
       position="19.84375,44.979168"
       orientation="1,0"
       id="guide1428"
       inkscape:locked="false" />
    <sodipodi:guide
       position="6.6145832,38.364584"
       orientation="1,0"
       id="guide1449"
       inkscape:locked="false" />
    <sodipodi:guide
       position="13.229166,38.364584"
       orientation="1,0"
       id="guide1451"
       inkscape:locked="false" />
    <sodipodi:guide
       position="26.458333,46.302083"
       orientation="1,0"
       id="guide1453"
       inkscape:locked="false" />
    <sodipodi:guide
       position="33.072917,46.302083"
       orientation="1,0"
       id="guide1455"
       inkscape:locked="false" />
    <sodipodi:guide
       position="-25.135416,26.458334"
       orientation="0,1"
       id="guide1457"
       inkscape:locked="false" />
    <sodipodi:guide
       position="-19.84375,33.072917"
       orientation="0,1"
       id="guide1459"
       inkscape:locked="false" />
    <sodipodi:guide
       position="-11.90625,13.229167"
       orientation="0,1"
       id="guide1461"
       inkscape:locked="false" />
    <sodipodi:guide
       position="-7.9374998,6.6145835"
       orientation="0,1"
       id="guide1463"
       inkscape:locked="false" />
  </sodipodi:namedview>
  <metadata
     id="metadata874">
    <rdf:RDF>
      <cc:Work
         rdf:about="">
        <dc:format>image/svg+xml</dc:format>
        <dc:type
           rdf:resource="http://purl.org/dc/dcmitype/StillImage" />
        <dc:title></dc:title>
      </cc:Work>
    </rdf:RDF>
  </metadata>
  <g
     inkscape:label="Layer 1"
     inkscape:groupmode="layer"
     id="layer1"
     transform="translate(0,-257.31248)">
    <path
       style="color:#000000;font-style:normal;font-variant:normal;font-weight:normal;font-stretch:normal;font-size:medium;line-height:normal;font-family:sans-serif;font-variant-ligatures:normal;font-variant-position:normal;font-variant-caps:normal;font-variant-numeric:normal;font-variant-alternates:normal;font-feature-settings:normal;text-indent:0;text-align:start;text-decoration:none;text-decoration-line:none;text-decoration-style:solid;text-decoration-color:#000000;letter-spacing:normal;word-spacing:normal;text-transform:none;writing-mode:lr-tb;direction:ltr;text-orientation:mixed;dominant-baseline:auto;baseline-shift:baseline;text-anchor:start;white-space:normal;shape-padding:0;clip-rule:nonzero;display:inline;overflow:visible;visibility:visible;opacity:1;isolation:auto;mix-blend-mode:normal;color-interpolation:sRGB;color-interpolation-filters:linearRGB;solid-color:#000000;solid-opacity:1;vector-effect:none;fill:#000000;fill-opacity:1;fill-rule:nonzero;stroke:none;stroke-width:2.64583325;stroke-linecap:butt;stroke-linejoin:miter;stroke-miterlimit:4;stroke-dasharray:none;stroke-dashoffset:0;stroke-opacity:1;color-rendering:auto;image-rendering:auto;shape-rendering:auto;text-rendering:auto;enable-background:accumulate"
       d="m 18.975512,266.85069 c -0.150137,-0.006 -0.282724,-0.002 -0.510563,0.003 v 5.2e-4 c -3.082009,0.005 -5.909382,1.38831 -7.896159,3.8101 -0.350342,-0.11359 -0.525776,-0.17336 -1.0376627,-0.19895 h -0.00155 -0.0031 c -2.0200342,7.7e-4 -3.9693654,1.10854 -4.8519003,3.03961 -0.8322881,0.13515 -1.6150204,0.42089 -2.1921142,0.99735 -0.7425413,0.74173 -1.1313789,1.80823 -1.1317139,2.97656 v 0.0419 l 0.0031,0.0429 c 0.03633,0.46573 0.1947168,1.11686 0.7172688,1.68621 0.522551,0.56936 1.3849178,0.95254 2.4561808,0.97513 h 0.012919 l 7.3153155,-0.0233 c 0.584118,-1.00749 1.476439,-1.74969 2.505274,-2.17765 l -9.7869996,0.0305 c -0.634353,-0.0134 -0.8073056,-0.16609 -0.9043376,-0.27182 -0.08584,-0.0935 -0.1188656,-0.23023 -0.1348756,-0.34416 0.01109,-0.67978 0.19615,-1.11734 0.4805908,-1.40147 0.2926112,-0.29229 0.7269485,-0.4871 1.3911297,-0.49454 l 0.8102864,-0.008 0.221175,-0.7798 c 0.3931822,-1.38606 1.6329895,-2.11864 3.0887006,-2.11976 0.3564802,0.002 0.7098143,0.0696 1.0469643,0.20153 l 0.786515,0.30748 0.491443,-0.68678 c 1.594988,-2.22941 4.05294,-3.5174 6.654891,-3.52278 v 5.1e-4 h 0.0015 0.0016 c 2.724147,0.005 5.284011,1.4148 6.86263,3.82199 l 0.347266,0.53175 0.634069,-0.0429 c 0.04208,-0.003 0.08897,-0.006 0.136427,-0.007 h 0.0016 c 1.150167,5.1e-4 2.059667,0.62736 2.578653,1.41748 0.94847,0.36323 1.839557,0.86779 2.648934,1.4981 5e-6,-0.004 5.16e-4,-0.008 5.16e-4,-0.0124 -2.4e-5,-2.47494 -2.038668,-4.81522 -4.895308,-5.00228 -1.758655,-2.40277 -4.364228,-3.91246 -7.232633,-4.23333 -0.298292,-0.0332 -0.465846,-0.0493 -0.615983,-0.0553 z"
       id="path850"
       inkscape:connector-curvature="0" />
    <path
       sodipodi:nodetypes="cccccccccccccccsccccccccccccccccccccccccccccc"
       inkscape:connector-curvature="0"
       id="path839"
       d="m 25.249318,264.12546 c -3.082009,0.005 -5.909361,1.38815 -7.896138,3.80994 -0.350342,-0.11359 -0.5257,-0.17296 -1.037586,-0.19855 h -0.0016 -0.0032 c -2.020034,7.7e-4 -3.969146,1.10804 -4.851681,3.03911 -0.832288,0.13515 -1.614969,0.42109 -2.192063,0.99755 -0.742541,0.74173 -1.131722,1.80832 -1.132057,2.97665 v 0.0417 l 0.0032,0.0432 c 0.03633,0.46573 0.194792,1.11672 0.717344,1.68607 0.522551,0.56936 1.384999,0.95255 2.456262,0.97514 h 0.01281 l 23.979787,-0.0753 0.0208,-0.002 c 0.986342,-0.0417 1.92691,-0.48645 2.469073,-1.25374 0.542165,-0.7673 0.70934,-1.70612 0.70934,-2.75249 -2.4e-5,-2.47494 -2.03826,-4.81513 -4.894901,-5.00219 -1.758656,-2.40277 -4.364279,-3.91274 -7.232684,-4.23361 -0.596583,-0.0664 -0.670999,-0.0629 -1.126677,-0.0518 z m 0.04108,2.0806 h 0.0016 0.0016 c 2.724147,0.005 5.284186,1.41491 6.862805,3.8221 l 0.347464,0.5316 0.63408,-0.0432 c 0.04208,-0.003 0.08865,-0.006 0.136104,-0.007 h 0.0016 c 1.834061,8.2e-4 3.058301,1.59297 3.058319,2.903 0,0.79207 -0.15627,1.28347 -0.310634,1.50194 -0.153723,0.21755 -0.286467,0.31426 -0.787796,0.33625 l -23.877274,0.0753 c -0.634353,-0.0134 -0.807654,-0.16648 -0.904686,-0.27221 -0.08584,-0.0935 -0.118492,-0.23032 -0.134502,-0.34425 0.01109,-0.67978 0.195923,-1.11694 0.480364,-1.40107 0.292611,-0.29229 0.727274,-0.48733 1.391455,-0.49477 l 0.810215,-0.008 0.220968,-0.77979 c 0.393182,-1.38606 1.633031,-2.11889 3.088742,-2.12001 0.356481,0.002 0.710045,0.0698 1.047195,0.20176 l 0.786196,0.30743 0.491572,-0.68693 c 1.594988,-2.22941 4.052697,-3.51729 6.654648,-3.52267 z"
       style="color:#000000;font-style:normal;font-variant:normal;font-weight:normal;font-stretch:normal;font-size:medium;line-height:normal;font-family:sans-serif;font-variant-ligatures:normal;font-variant-position:normal;font-variant-caps:normal;font-variant-numeric:normal;font-variant-alternates:normal;font-feature-settings:normal;text-indent:0;text-align:start;text-decoration:none;text-decoration-line:none;text-decoration-style:solid;text-decoration-color:#000000;letter-spacing:normal;word-spacing:normal;text-transform:none;writing-mode:lr-tb;direction:ltr;text-orientation:mixed;dominant-baseline:auto;baseline-shift:baseline;text-anchor:start;white-space:normal;shape-padding:0;clip-rule:nonzero;display:inline;overflow:visible;visibility:visible;opacity:1;isolation:auto;mix-blend-mode:normal;color-interpolation:sRGB;color-interpolation-filters:linearRGB;solid-color:#000000;solid-opacity:1;vector-effect:none;fill:none;fill-opacity:1;fill-rule:nonzero;stroke:none;stroke-width:2.64583325;stroke-linecap:butt;stroke-linejoin:miter;stroke-miterlimit:4;stroke-dasharray:none;stroke-dashoffset:0;stroke-opacity:1;color-rendering:auto;image-rendering:auto;shape-rendering:auto;text-rendering:auto;enable-background:accumulate" />
    <path
       style="color:#000000;font-style:normal;font-variant:normal;font-weight:normal;font-stretch:normal;font-size:medium;line-height:normal;font-family:sans-serif;font-variant-ligatures:normal;font-variant-position:normal;font-variant-caps:normal;font-variant-numeric:normal;font-variant-alternates:normal;font-feature-settings:normal;text-indent:0;text-align:start;text-decoration:none;text-decoration-line:none;text-decoration-style:solid;text-decoration-color:#000000;letter-spacing:normal;word-spacing:normal;text-transform:none;writing-mode:lr-tb;direction:ltr;text-orientation:mixed;dominant-baseline:auto;baseline-shift:baseline;text-anchor:start;white-space:normal;shape-padding:0;clip-rule:nonzero;display:inline;overflow:visible;visibility:visible;opacity:1;isolation:auto;mix-blend-mode:normal;color-interpolation:sRGB;color-interpolation-filters:linearRGB;solid-color:#000000;solid-opacity:1;vector-effect:none;fill:#000000;fill-opacity:1;fill-rule:nonzero;stroke:none;stroke-width:2.64583325;stroke-linecap:butt;stroke-linejoin:miter;stroke-miterlimit:4;stroke-dasharray:none;stroke-dashoffset:0;stroke-opacity:1;color-rendering:auto;image-rendering:auto;shape-rendering:auto;text-rendering:auto;enable-background:accumulate"
       d="m 25.416634,273.98835 c -3.082008,0.005 -5.90936,1.38815 -7.896137,3.80994 -0.350342,-0.11359 -0.5257,-0.17296 -1.037587,-0.19855 h -0.0016 -0.0032 c -2.020033,7.7e-4 -3.969145,1.10804 -4.851679,3.03911 -0.832289,0.13515 -1.61497,0.42109 -2.1920627,0.99755 -0.7425418,0.74173 -1.1317228,1.80832 -1.1320586,2.97665 v 0.0417 l 0.00321,0.0432 c 0.036331,0.46573 0.1947927,1.11672 0.7173441,1.68607 0.5225512,0.56936 1.3849992,0.95255 2.4562622,0.97514 h 0.01281 l 23.979788,-0.0753 0.02081,-0.002 c 0.986343,-0.0417 1.926909,-0.48645 2.469073,-1.25374 0.542164,-0.7673 0.709338,-1.70612 0.709338,-2.75249 -3.7e-5,-2.47495 -2.038273,-4.81514 -4.894913,-5.0022 -1.758656,-2.40277 -4.364279,-3.91274 -7.232684,-4.23361 -0.596583,-0.0664 -0.670999,-0.0629 -1.126677,-0.0518 z m 0.04108,2.0806 h 0.0016 0.0016 c 2.724147,0.005 5.284186,1.41491 6.862805,3.8221 l 0.347464,0.5316 0.63408,-0.0432 c 0.04208,-0.003 0.08865,-0.006 0.136104,-0.007 h 0.0016 c 1.834061,8.2e-4 3.0583,1.59297 3.05832,2.903 0,0.79207 -0.156273,1.28347 -0.310635,1.50194 -0.153722,0.21755 -0.286467,0.31426 -0.787798,0.33625 l -23.877309,0.0753 c -0.634353,-0.0134 -0.807654,-0.16648 -0.904686,-0.27221 -0.08584,-0.0935 -0.118492,-0.23032 -0.134502,-0.34425 0.01109,-0.67978 0.195923,-1.11694 0.480364,-1.40107 0.292611,-0.29229 0.727274,-0.48733 1.391455,-0.49477 l 0.810215,-0.008 0.220967,-0.77979 c 0.393183,-1.38606 1.633032,-2.11889 3.088743,-2.12001 0.356481,0.002 0.710045,0.0698 1.047195,0.20176 l 0.786196,0.30743 0.491572,-0.68693 c 1.594988,-2.22941 4.052697,-3.51729 6.654647,-3.52267 z"
       id="path1127"
       inkscape:connector-curvature="0"
       sodipodi:nodetypes="cccccccccccccccsccccccccccccccccccccccccccccc" />
  </g>
</svg>
